<svg width="36" height="36" viewBox="0 0 36 36" fill="none" xmlns="http://www.w3.org/2000/svg">
<rect width="36" height="36" rx="18" fill="#664EF9"/>
<g clip-path="url(#clip0_559_736)">
<path d="M25.3924 25.0709C25.797 25.0709 26.1476 24.9373 26.4456 24.6735L21.346 19.5736C21.2236 19.6613 21.105 19.7465 20.993 19.8275C20.6113 20.1086 20.3016 20.3281 20.0638 20.4853C19.8259 20.6429 19.5095 20.8035 19.1146 20.9675C18.7193 21.1317 18.3511 21.2135 18.0096 21.2135H17.9996H17.9896C17.648 21.2135 17.2797 21.1317 16.8845 20.9675C16.4893 20.8035 16.1729 20.6429 15.9354 20.4853C15.6975 20.3281 15.388 20.1087 15.0061 19.8275C14.8997 19.7495 14.7817 19.6639 14.6541 19.5723L9.55347 24.6735C9.85148 24.9373 10.2023 25.0709 10.6069 25.0709H25.3924Z" fill="white"/>
<path d="M10.0146 16.3623C9.63301 16.1079 9.29461 15.8165 9 15.4883V23.2473L13.4948 18.7525C12.5956 18.1247 11.437 17.3289 10.0146 16.3623Z" fill="white"/>
<path d="M25.9959 16.3623C24.6278 17.2883 23.4649 18.0855 22.5073 18.7543L27.0003 23.2475V15.4883C26.7123 15.8099 26.3775 16.1011 25.9959 16.3623Z" fill="white"/>
<path d="M25.3928 10.9277H10.6073C10.0915 10.9277 9.69489 11.1019 9.41708 11.4499C9.13904 11.7981 9.00024 12.2335 9.00024 12.7557C9.00024 13.1775 9.18443 13.6346 9.55263 14.1269C9.92084 14.6191 10.3126 15.0057 10.7278 15.287C10.9555 15.4478 11.6419 15.925 12.7871 16.7184C13.4053 17.1468 13.9429 17.5202 14.4049 17.8424C14.7987 18.1168 15.1383 18.3544 15.4187 18.5516C15.4509 18.5742 15.5015 18.6104 15.5687 18.6584C15.6411 18.7104 15.7327 18.7764 15.8457 18.858C16.0633 19.0154 16.2441 19.1426 16.3881 19.2398C16.5319 19.337 16.7061 19.4456 16.9105 19.5662C17.1147 19.6866 17.3073 19.7772 17.4881 19.8374C17.6689 19.8976 17.8363 19.9278 17.9903 19.9278H18.0003H18.0103C18.1642 19.9278 18.3317 19.8976 18.5125 19.8374C18.6933 19.7772 18.8857 19.6868 19.0901 19.5662C19.2943 19.4456 19.4683 19.3368 19.6125 19.2398C19.7565 19.1426 19.9373 19.0154 20.155 18.858C20.2677 18.7764 20.3593 18.7104 20.4317 18.6586C20.4989 18.6104 20.5495 18.5744 20.5819 18.5516C20.8004 18.3996 21.1407 18.163 21.5984 17.8452C22.4312 17.2666 23.6576 16.415 25.2828 15.287C25.7716 14.9455 26.18 14.5336 26.5082 14.0516C26.8358 13.5696 27 13.064 27 12.5349C27 12.0929 26.8408 11.7147 26.523 11.3997C26.2048 11.0851 25.828 10.9277 25.3928 10.9277Z" fill="white"/>
</g>
<defs>
<clipPath id="clip0_559_736">
<rect width="18" height="18" fill="white" transform="translate(9 9)"/>
</clipPath>
</defs>
</svg>
