<svg width="36" height="36" viewBox="0 0 36 36" fill="none" xmlns="http://www.w3.org/2000/svg">
<rect width="36" height="36" rx="18" fill="#7B519D"/>
<path d="M17.9029 10.4075C16.6341 10.4247 13.904 10.633 12.3768 12.0323C11.2431 13.1594 10.8469 14.821 10.8008 16.8788C10.7613 18.9287 10.7151 22.778 14.426 23.8267V25.4218C14.426 25.4218 14.4009 26.0611 14.8228 26.1929C15.3435 26.3577 15.6401 25.864 16.1344 25.3367L17.0572 24.2953C19.5949 24.5062 21.5393 24.0191 21.7634 23.9466C22.2775 23.7819 25.1783 23.4121 25.6529 19.5621C26.1406 15.5869 25.4156 13.0823 24.1105 11.9486L24.1039 11.9473C23.7085 11.5847 22.1266 10.4313 18.5871 10.4181C18.5871 10.4181 18.326 10.4016 17.9029 10.4075ZM17.947 11.5261C18.3063 11.5241 18.5271 11.5393 18.5271 11.5393C21.5195 11.5458 22.9505 12.4489 23.2866 12.752C24.3874 13.6939 24.9529 15.9528 24.539 19.2721C24.1435 22.4887 21.7904 22.693 21.3554 22.8314C21.1708 22.8907 19.4571 23.3126 17.3004 23.1741C17.3004 23.1741 15.6928 25.1126 15.1919 25.6136C15.1128 25.6993 15.0205 25.7256 14.9612 25.7124C14.8755 25.6927 14.8492 25.5872 14.8557 25.4422L14.8689 22.7932C11.7242 21.9231 11.9088 18.6394 11.9417 16.9256C11.9813 15.2119 12.3043 13.8067 13.26 12.8575C14.5499 11.6909 16.8687 11.5327 17.9464 11.5261H17.947ZM18.1843 13.2398C18.1584 13.2397 18.1327 13.2447 18.1087 13.2546C18.0847 13.2645 18.0629 13.279 18.0445 13.2973C18.0262 13.3156 18.0116 13.3374 18.0017 13.3613C17.9917 13.3853 17.9866 13.4109 17.9866 13.4369C17.9866 13.4893 18.0074 13.5396 18.0445 13.5767C18.0816 13.6138 18.1319 13.6346 18.1843 13.6346C18.6744 13.6253 19.1614 13.7131 19.6173 13.8929C20.0732 14.0728 20.489 14.3412 20.8406 14.6826C21.5591 15.3813 21.909 16.3173 21.9222 17.5432C21.9222 17.5692 21.9273 17.5949 21.9373 17.6189C21.9472 17.6429 21.9618 17.6647 21.9801 17.6831C21.9985 17.7014 22.0203 17.716 22.0443 17.7259C22.0683 17.7359 22.094 17.741 22.12 17.741V17.735C22.1724 17.735 22.2227 17.7142 22.2598 17.6771C22.2969 17.64 22.3177 17.5897 22.3177 17.5373C22.3422 16.9608 22.249 16.3853 22.0439 15.8459C21.8388 15.3065 21.526 14.8145 21.1247 14.3999C20.3403 13.6353 19.3503 13.2398 18.1837 13.2398H18.1843ZM15.5781 13.6946C15.438 13.6746 15.2952 13.7025 15.1728 13.7737H15.1649C14.8946 13.9319 14.6455 14.1296 14.4082 14.3933C14.2302 14.6042 14.1307 14.8145 14.1043 15.0188C14.0888 15.1386 14.1001 15.2604 14.1373 15.3754L14.1505 15.382C14.3536 15.9792 14.6187 16.5536 14.9414 17.0957C15.3597 17.8549 15.8736 18.5573 16.4706 19.1858L16.4904 19.2121L16.5167 19.2319L16.5365 19.2517L16.5563 19.2715C17.1872 19.8699 17.8915 20.386 18.6523 20.8072C19.5224 21.2818 20.051 21.5059 20.3674 21.5982V21.6048C20.4596 21.6311 20.544 21.6443 20.6297 21.6443C20.8997 21.6246 21.1554 21.5151 21.356 21.3332C21.6131 21.1025 21.8174 20.8468 21.969 20.5765V20.5699C22.1206 20.2865 22.0679 20.0156 21.8504 19.8311C21.412 19.4476 20.9374 19.1076 20.4333 18.816C20.0971 18.6315 19.7544 18.7435 19.6159 18.9281L19.3193 19.3031C19.1677 19.4877 18.8909 19.4613 18.8909 19.4613L18.883 19.4679C16.8265 18.9406 16.2795 16.8584 16.2795 16.8584C16.2795 16.8584 16.2531 16.575 16.4442 16.43L16.8133 16.1334C16.9913 15.9884 17.1165 15.6456 16.9254 15.3095C16.6342 14.8051 16.2942 14.3304 15.9103 13.8923C15.8268 13.7888 15.709 13.7186 15.5781 13.6946ZM18.5264 14.2812C18.474 14.2814 18.4237 14.3024 18.3868 14.3396C18.3498 14.3768 18.3292 14.4272 18.3293 14.4796C18.3295 14.5321 18.3505 14.5823 18.3877 14.6192C18.4249 14.6562 18.4753 14.6769 18.5277 14.6767C19.1874 14.6881 19.8155 14.9607 20.2744 15.4347C20.4815 15.6631 20.6406 15.9307 20.7425 16.2216C20.8444 16.5126 20.8869 16.821 20.8676 17.1286C20.8678 17.181 20.8887 17.2311 20.9258 17.268C20.9628 17.305 21.013 17.3257 21.0654 17.3257L21.072 17.3336C21.098 17.3336 21.1237 17.3285 21.1478 17.3185C21.1718 17.3085 21.1936 17.2939 21.212 17.2755C21.2304 17.2571 21.2449 17.2352 21.2548 17.2111C21.2647 17.187 21.2698 17.1613 21.2697 17.1352C21.2895 16.3509 21.0456 15.6918 20.5644 15.1644C20.0833 14.6371 19.411 14.3405 18.5541 14.2812C18.5449 14.2806 18.5356 14.2806 18.5264 14.2812ZM18.8494 15.3483C18.8229 15.3476 18.7966 15.352 18.7719 15.3614C18.7471 15.3708 18.7245 15.385 18.7053 15.4031C18.686 15.4213 18.6705 15.443 18.6597 15.4672C18.6488 15.4913 18.6429 15.5173 18.6421 15.5438C18.6413 15.5702 18.6457 15.5966 18.6551 15.6213C18.6645 15.646 18.6787 15.6686 18.6969 15.6879C18.715 15.7071 18.7368 15.7226 18.7609 15.7335C18.785 15.7443 18.8111 15.7503 18.8375 15.7511C19.4901 15.784 19.8064 16.1136 19.846 16.7925C19.8477 16.8438 19.8693 16.8924 19.9062 16.9281C19.9431 16.9637 19.9924 16.9837 20.0437 16.9836H20.0503C20.0769 16.9828 20.103 16.9766 20.1271 16.9655C20.1512 16.9544 20.1728 16.9385 20.1907 16.9188C20.2085 16.8991 20.2222 16.876 20.2309 16.8509C20.2397 16.8258 20.2432 16.7992 20.2415 16.7727C20.1953 15.8895 19.7142 15.3945 18.8573 15.3483C18.8547 15.3483 18.852 15.3483 18.8494 15.3483Z" fill="white"/>
</svg>
