<svg width="36" height="36" viewBox="0 0 36 36" fill="none" xmlns="http://www.w3.org/2000/svg">
<rect width="36" height="36" rx="18" fill="#0DBB41"/>
<path d="M23.3802 12.5885C22.6798 11.883 21.8463 11.3237 20.928 10.9431C20.0097 10.5624 19.0249 10.368 18.0308 10.3711C13.864 10.3711 10.4726 13.7625 10.4726 17.9322C10.4726 19.2645 10.8217 20.5673 11.4826 21.7118L10.4097 25.6306L14.4181 24.5786C15.5263 25.1823 16.7679 25.499 18.0299 25.4999H18.0327C22.1995 25.4999 25.5938 22.1085 25.5938 17.9389C25.5963 16.9451 25.4019 15.9607 25.0218 15.0426C24.6417 14.1244 24.0834 13.2906 23.3792 12.5895L23.3802 12.5885ZM18.0327 24.2239C16.9065 24.224 15.801 23.9213 14.832 23.3474L14.6022 23.2101L12.2236 23.8328L12.8588 21.5143L12.71 21.2759C12.0784 20.2752 11.7447 19.1155 11.7477 17.9322C11.7498 16.2652 12.4131 14.6671 13.5921 13.4886C14.7711 12.3101 16.3695 11.6475 18.0365 11.6462C19.7141 11.6462 21.2944 12.3024 22.4799 13.4879C23.0649 14.0708 23.5286 14.7638 23.8442 15.527C24.1598 16.2901 24.3211 17.1083 24.3187 17.9341C24.3158 21.4028 21.4966 24.2229 18.0327 24.2229V24.2239ZM21.4785 19.5154C21.2906 19.42 20.3607 18.9641 20.1881 18.9012C20.0155 18.8382 19.8896 18.8058 19.7618 18.9965C19.6369 19.1844 19.2735 19.6107 19.1629 19.7385C19.0522 19.8635 18.9426 19.8816 18.7547 19.7862C18.5668 19.6908 17.9555 19.4915 17.2345 18.8478C16.6737 18.3471 16.2931 17.7271 16.1825 17.5393C16.0719 17.3514 16.1701 17.2474 16.2664 17.1549C16.3532 17.071 16.4543 16.9346 16.5497 16.824C16.6451 16.7133 16.6746 16.6361 16.7376 16.5083C16.8005 16.3834 16.77 16.2727 16.7223 16.1774C16.6746 16.082 16.296 15.1521 16.1415 14.7735C15.9899 14.4034 15.8315 14.4549 15.7152 14.4483C15.6046 14.4425 15.4796 14.4425 15.3547 14.4425C15.2297 14.4425 15.0237 14.4902 14.8511 14.6781C14.6785 14.866 14.1892 15.3247 14.1892 16.2546C14.1892 17.1845 14.8654 18.0819 14.9608 18.2097C15.0562 18.3347 16.2931 20.2449 18.1882 21.0623C18.6383 21.2559 18.9902 21.3722 19.264 21.4619C19.717 21.6049 20.128 21.584 20.4532 21.5363C20.8166 21.4829 21.571 21.0804 21.7293 20.6388C21.8876 20.1973 21.8876 19.8196 21.84 19.7414C21.7951 19.6575 21.6702 19.6107 21.4794 19.5144L21.4785 19.5154Z" fill="white"/>
</svg>
