<svg width="31" height="31" viewBox="0 0 31 31" fill="none" xmlns="http://www.w3.org/2000/svg">
<path d="M15.8055 9.56142C12.4803 9.56142 9.79671 12.245 9.79671 15.5702C9.79671 18.8954 12.4803 21.579 15.8055 21.579C19.1307 21.579 21.8143 18.8954 21.8143 15.5702C21.8143 12.245 19.1307 9.56142 15.8055 9.56142ZM15.8055 19.4755C13.6551 19.4755 11.9002 17.7206 11.9002 15.5702C11.9002 13.4198 13.6551 11.6649 15.8055 11.6649C17.9559 11.6649 19.7108 13.4198 19.7108 15.5702C19.7108 17.7206 17.9559 19.4755 15.8055 19.4755ZM22.0604 7.91493C21.284 7.91493 20.6571 8.54189 20.6571 9.31825C20.6571 10.0946 21.284 10.7216 22.0604 10.7216C22.8367 10.7216 23.4637 10.0976 23.4637 9.31825C23.4639 9.1339 23.4278 8.95132 23.3573 8.78095C23.2869 8.61059 23.1835 8.4558 23.0532 8.32544C22.9228 8.19509 22.768 8.09173 22.5977 8.02128C22.4273 7.95084 22.2447 7.9147 22.0604 7.91493ZM27.5184 15.5702C27.5184 13.953 27.533 12.3505 27.4422 10.7362C27.3514 8.86122 26.9237 7.19716 25.5526 5.82607C24.1785 4.45204 22.5174 4.02724 20.6424 3.93642C19.0252 3.8456 17.4227 3.86025 15.8084 3.86025C14.1912 3.86025 12.5887 3.8456 10.9744 3.93642C9.09944 4.02724 7.43538 4.45497 6.06429 5.82607C4.69026 7.20009 4.26546 8.86122 4.17464 10.7362C4.08382 12.3534 4.09847 13.956 4.09847 15.5702C4.09847 17.1845 4.08382 18.7899 4.17464 20.4042C4.26546 22.2792 4.69319 23.9433 6.06429 25.3144C7.43831 26.6884 9.09944 27.1132 10.9744 27.204C12.5916 27.2948 14.1942 27.2802 15.8084 27.2802C17.4256 27.2802 19.0282 27.2948 20.6424 27.204C22.5174 27.1132 24.1815 26.6854 25.5526 25.3144C26.9266 23.9403 27.3514 22.2792 27.4422 20.4042C27.536 18.7899 27.5184 17.1874 27.5184 15.5702ZM24.9403 22.4784C24.7264 23.0116 24.4686 23.4101 24.0555 23.8202C23.6424 24.2333 23.2469 24.4911 22.7137 24.705C21.1727 25.3173 17.5135 25.1796 15.8055 25.1796C14.0975 25.1796 10.4354 25.3173 8.89436 24.7079C8.36116 24.494 7.96272 24.2362 7.55257 23.8231C7.13948 23.4101 6.88167 23.0145 6.6678 22.4813C6.05843 20.9374 6.19612 17.2782 6.19612 15.5702C6.19612 13.8622 6.05843 10.2001 6.6678 8.65908C6.88167 8.12587 7.13948 7.72743 7.55257 7.31728C7.96565 6.90712 8.36116 6.64638 8.89436 6.43251C10.4354 5.82314 14.0975 5.96083 15.8055 5.96083C17.5135 5.96083 21.1756 5.82314 22.7166 6.43251C23.2498 6.64638 23.6483 6.90419 24.0584 7.31728C24.4715 7.73036 24.7293 8.12587 24.9432 8.65908C25.5526 10.2001 25.4149 13.8622 25.4149 15.5702C25.4149 17.2782 25.5526 20.9374 24.9403 22.4784Z" fill="#1E2123"/>
</svg>
