<svg width="31" height="31" viewBox="0 0 31 31" fill="none" xmlns="http://www.w3.org/2000/svg">
<path d="M27.2554 9.26839C27.4231 8.72142 27.2554 8.32031 26.4625 8.32031H23.836C23.1676 8.32031 22.8622 8.66731 22.6946 9.04843C22.6946 9.04843 21.3591 12.2467 19.4668 14.3205C18.8559 14.9239 18.5769 15.1145 18.2439 15.1145C18.0774 15.1145 17.8355 14.9239 17.8355 14.3769V9.26839C17.8355 8.61203 17.6427 8.32031 17.0857 8.32031H12.9585C12.5417 8.32031 12.2902 8.62379 12.2902 8.91315C12.2902 9.53423 13.2363 9.67773 13.3333 11.428V15.225C13.3333 16.0567 13.1812 16.2084 12.8459 16.2084C11.956 16.2084 9.79056 12.9984 8.50543 9.32367C8.25511 8.60968 8.0024 8.32149 7.33169 8.32149H4.70633C3.95538 8.32149 3.80566 8.66849 3.80566 9.0496C3.80566 9.73419 4.69555 13.1219 7.9509 17.6023C10.1211 20.6618 13.1765 22.3203 15.9599 22.3203C17.6283 22.3203 17.8343 21.9521 17.8343 21.317V19.0044C17.8343 18.2681 17.9936 18.1198 18.5218 18.1198C18.9098 18.1198 19.5781 18.3128 21.1364 19.7866C22.9161 21.5346 23.2108 22.3191 24.2108 22.3191H26.8362C27.586 22.3191 27.9608 21.951 27.7452 21.224C27.5093 20.5006 26.6589 19.4479 25.5307 18.2022C24.9175 17.4917 24.0012 16.7271 23.7222 16.3448C23.3329 15.852 23.4455 15.6344 23.7222 15.1968C23.7234 15.198 26.9224 10.7728 27.2554 9.26839Z" fill="#1E2123"/>
</svg>
