<svg width="36" height="35" viewBox="0 0 36 35" fill="none" xmlns="http://www.w3.org/2000/svg">
<g clip-path="url(#clip0_2831_902)">
<rect x="0.934143" y="0.427734" width="34.1461" height="34.1461" rx="17.073" fill="#664EF9" fill-opacity="0.1"/>
<path d="M17.7671 9.47798C16.3699 9.49685 13.3636 9.72621 11.6818 11.2671C10.4334 12.5083 9.99722 14.3381 9.94642 16.6041C9.90287 18.8614 9.85206 23.1001 13.9384 24.2549V26.0114C13.9384 26.0114 13.9108 26.7154 14.3754 26.8606C14.9488 27.0421 15.2754 26.4984 15.8197 25.9178L16.8359 24.771C19.6303 25.0032 21.7715 24.4669 22.0182 24.387C22.5844 24.2056 25.7787 23.7984 26.3013 19.5589C26.8384 15.1815 26.04 12.4234 24.6029 11.1749L24.5956 11.1735C24.1601 10.7743 22.4182 9.50411 18.5205 9.48959C18.5205 9.48959 18.2331 9.47145 17.7671 9.47798ZM17.8157 10.7097C18.2113 10.7075 18.4545 10.7242 18.4545 10.7242C21.7497 10.7315 23.3254 11.7258 23.6956 12.0597C24.9077 13.0969 25.5305 15.5843 25.0747 19.2395C24.6392 22.7815 22.048 23.0065 21.5689 23.1589C21.3657 23.2243 19.4786 23.6888 17.1037 23.5364C17.1037 23.5364 15.3334 25.671 14.7818 26.2226C14.6947 26.317 14.5931 26.346 14.5278 26.3315C14.4334 26.3097 14.4044 26.1936 14.4117 26.0339L14.4262 23.1168C10.9633 22.1588 11.1665 18.5427 11.2028 16.6556C11.2464 14.7685 11.602 13.221 12.6544 12.1758C14.0749 10.8912 16.6283 10.717 17.815 10.7097H17.8157ZM18.077 12.5968C18.0485 12.5967 18.0202 12.6023 17.9938 12.6131C17.9674 12.624 17.9433 12.64 17.9231 12.6601C17.9029 12.6803 17.8868 12.7042 17.8759 12.7306C17.8649 12.757 17.8593 12.7853 17.8593 12.8138C17.8593 12.8716 17.8822 12.927 17.9231 12.9678C17.9639 13.0086 18.0193 13.0316 18.077 13.0316C18.6166 13.0213 19.1529 13.118 19.655 13.3161C20.157 13.5141 20.6149 13.8097 21.0021 14.1856C21.7932 14.955 22.1786 15.9857 22.1932 17.3357C22.1932 17.3643 22.1988 17.3926 22.2097 17.419C22.2207 17.4454 22.2367 17.4694 22.2569 17.4897C22.2771 17.5099 22.3012 17.5259 22.3276 17.5369C22.354 17.5478 22.3823 17.5534 22.4109 17.5534V17.5469C22.4686 17.5469 22.524 17.524 22.5649 17.4831C22.6057 17.4423 22.6286 17.3869 22.6286 17.3292C22.6556 16.6943 22.553 16.0606 22.3271 15.4666C22.1013 14.8726 21.7569 14.3309 21.3149 13.8743C20.4512 13.0323 19.361 12.5968 18.0763 12.5968H18.077ZM15.2071 13.0976C15.0528 13.0756 14.8955 13.1063 14.7608 13.1847H14.7521C14.4545 13.3589 14.1801 13.5767 13.9188 13.867C13.7229 14.0993 13.6133 14.3308 13.5842 14.5558C13.5671 14.6878 13.5795 14.8219 13.6205 14.9485L13.635 14.9557C13.8587 15.6134 14.1507 16.2459 14.506 16.8429C14.9666 17.6789 15.5325 18.4524 16.1899 19.1444L16.2117 19.1735L16.2407 19.1952L16.2625 19.217L16.2843 19.2388C16.979 19.8978 17.7546 20.4661 18.5924 20.9299C19.5504 21.4525 20.1326 21.6993 20.4809 21.8009V21.8082C20.5826 21.8372 20.6755 21.8517 20.7698 21.8517C21.0672 21.83 21.3488 21.7094 21.5697 21.5091C21.8527 21.2551 22.0777 20.9735 22.2447 20.6759V20.6687C22.4116 20.3566 22.3536 20.0582 22.114 19.855C21.6313 19.4327 21.1087 19.0584 20.5535 18.7372C20.1834 18.534 19.8059 18.6574 19.6535 18.8606L19.3269 19.2736C19.16 19.4769 18.8551 19.4478 18.8551 19.4478L18.8464 19.4551C16.5819 18.8744 15.9794 16.5816 15.9794 16.5816C15.9794 16.5816 15.9504 16.2695 16.1609 16.1098L16.5673 15.7832C16.7633 15.6235 16.9012 15.2461 16.6907 14.8759C16.37 14.3205 15.9956 13.7978 15.573 13.3154C15.481 13.2014 15.3512 13.1241 15.2071 13.0976ZM18.4537 13.7436C18.396 13.7438 18.3407 13.7669 18.3 13.8079C18.2593 13.8489 18.2365 13.9043 18.2367 13.9621C18.2369 14.0198 18.26 14.0751 18.301 14.1158C18.342 14.1565 18.3974 14.1793 18.4552 14.1791C19.1816 14.1917 19.8733 14.4919 20.3786 15.0138C20.6066 15.2653 20.7819 15.56 20.8941 15.8803C21.0063 16.2007 21.0531 16.5404 21.0318 16.8792C21.032 16.9368 21.0551 16.992 21.0959 17.0327C21.1367 17.0733 21.192 17.0962 21.2496 17.0962L21.2568 17.1049C21.2855 17.1049 21.3139 17.0992 21.3403 17.0882C21.3668 17.0773 21.3908 17.0611 21.4111 17.0409C21.4313 17.0206 21.4473 16.9965 21.4582 16.97C21.4691 16.9435 21.4747 16.9151 21.4746 16.8864C21.4964 16.0227 21.2278 15.2969 20.698 14.7162C20.1681 14.1356 19.4278 13.8089 18.4842 13.7436C18.4741 13.7429 18.4639 13.7429 18.4537 13.7436ZM18.8094 14.9187C18.7803 14.9179 18.7513 14.9227 18.724 14.9331C18.6968 14.9434 18.6719 14.9591 18.6507 14.979C18.6295 14.999 18.6124 15.023 18.6005 15.0496C18.5886 15.0761 18.582 15.1048 18.5811 15.1339C18.5803 15.163 18.5851 15.192 18.5955 15.2193C18.6058 15.2465 18.6215 15.2714 18.6414 15.2926C18.6614 15.3138 18.6854 15.3309 18.712 15.3428C18.7385 15.3548 18.7672 15.3613 18.7963 15.3622C19.5149 15.3985 19.8633 15.7614 19.9068 16.509C19.9087 16.5655 19.9325 16.619 19.9731 16.6583C20.0137 16.6976 20.0681 16.7195 20.1246 16.7195H20.1318C20.1611 16.7186 20.1898 16.7118 20.2164 16.6995C20.2429 16.6872 20.2668 16.6697 20.2864 16.6481C20.3061 16.6264 20.3211 16.601 20.3307 16.5733C20.3403 16.5457 20.3443 16.5164 20.3423 16.4872C20.2915 15.5146 19.7617 14.9695 18.8181 14.9187C18.8152 14.9187 18.8123 14.9187 18.8094 14.9187Z" fill="#664EF9"/>
</g>
<defs>
<clipPath id="clip0_2831_902">
<rect width="34.1461" height="34.9997" fill="white" transform="translate(0.934143)"/>
</clipPath>
</defs>
</svg>
