<svg width="38" height="36" viewBox="0 0 38 36" fill="none" xmlns="http://www.w3.org/2000/svg">
<g clip-path="url(#clip0_2831_2692)">
<rect x="1.29492" y="0.111328" width="35.7791" height="35.779" rx="17.8895" fill="#F4F5FA"/>
<g clip-path="url(#clip1_2831_2692)">
<path d="M19.0873 10.4544C17.8262 10.4714 15.1129 10.6784 13.5951 12.0692C12.4683 13.1894 12.0746 14.8408 12.0288 16.886C11.9895 18.9233 11.9436 22.749 15.6317 23.7912V25.3765C15.6317 25.3765 15.6068 26.0119 16.0261 26.1429C16.5436 26.3067 16.8384 25.816 17.3297 25.292L18.2468 24.257C20.7689 24.4666 22.7013 23.9825 22.9241 23.9104C23.435 23.7466 26.318 23.3791 26.7897 19.5528C27.2745 15.602 26.5539 13.1127 25.2568 11.986L25.2503 11.9847C24.8572 11.6244 23.285 10.478 19.7672 10.4649C19.7672 10.4649 19.5078 10.4485 19.0873 10.4544ZM19.1312 11.5661C19.4882 11.5641 19.7076 11.5792 19.7076 11.5792C22.6817 11.5857 24.1039 12.4832 24.438 12.7845C25.5319 13.7206 26.094 15.9656 25.6826 19.2646C25.2896 22.4614 22.9509 22.6645 22.5186 22.802C22.3352 22.861 20.6319 23.2802 18.4885 23.1427C18.4885 23.1427 16.8908 25.0693 16.3929 25.5671C16.3143 25.6523 16.2226 25.6785 16.1636 25.6654C16.0785 25.6457 16.0523 25.5409 16.0588 25.3968L16.0719 22.764C12.9465 21.8993 13.13 18.6357 13.1627 16.9325C13.202 15.2293 13.523 13.8327 14.4729 12.8893C15.7549 11.7298 18.0594 11.5726 19.1305 11.5661H19.1312ZM19.367 13.2693C19.3412 13.2692 19.3157 13.2742 19.2918 13.284C19.268 13.2938 19.2463 13.3082 19.2281 13.3264C19.2098 13.3446 19.1953 13.3662 19.1854 13.39C19.1755 13.4139 19.1705 13.4394 19.1705 13.4652C19.1705 13.5173 19.1912 13.5673 19.228 13.6041C19.2649 13.641 19.3149 13.6617 19.367 13.6617C19.854 13.6524 20.338 13.7396 20.7912 13.9184C21.2443 14.0972 21.6575 14.3639 22.007 14.7033C22.721 15.3976 23.0688 16.3279 23.0819 17.5463C23.0819 17.5721 23.087 17.5977 23.0969 17.6215C23.1068 17.6454 23.1213 17.667 23.1395 17.6853C23.1578 17.7035 23.1794 17.718 23.2033 17.7279C23.2271 17.7377 23.2527 17.7428 23.2785 17.7428V17.7369C23.3306 17.7369 23.3806 17.7162 23.4174 17.6794C23.4543 17.6425 23.475 17.5925 23.475 17.5404C23.4993 16.9674 23.4067 16.3954 23.2029 15.8594C22.999 15.3233 22.6882 14.8343 22.2893 14.4222C21.5098 13.6623 20.5258 13.2693 19.3663 13.2693H19.367ZM16.7768 13.7213C16.6375 13.7014 16.4956 13.7291 16.3739 13.7999H16.3661C16.0975 13.9571 15.8499 14.1536 15.614 14.4157C15.4372 14.6253 15.3382 14.8343 15.312 15.0373C15.2966 15.1565 15.3078 15.2775 15.3448 15.3917L15.3579 15.3983C15.5598 15.9919 15.8233 16.5627 16.144 17.1015C16.5597 17.856 17.0705 18.5542 17.6638 19.1788L17.6834 19.205L17.7096 19.2246L17.7293 19.2443L17.7489 19.2639C18.376 19.8587 19.076 20.3716 19.8321 20.7903C20.6968 21.2619 21.2222 21.4847 21.5366 21.5764V21.5829C21.6283 21.6091 21.7122 21.6222 21.7973 21.6222C22.0657 21.6026 22.3199 21.4938 22.5192 21.313C22.7747 21.0837 22.9778 20.8296 23.1285 20.561V20.5544C23.2791 20.2728 23.2267 20.0035 23.0105 19.8201C22.5749 19.439 22.1032 19.1011 21.6021 18.8113C21.268 18.6278 20.9274 18.7392 20.7898 18.9226L20.495 19.2954C20.3444 19.4788 20.0692 19.4526 20.0692 19.4526L20.0614 19.4591C18.0175 18.9351 17.4738 16.8657 17.4738 16.8657C17.4738 16.8657 17.4476 16.584 17.6376 16.4399L18.0044 16.1451C18.1813 16.001 18.3058 15.6603 18.1158 15.3262C17.8263 14.8249 17.4884 14.3532 17.107 13.9178C17.024 13.8149 16.9068 13.7452 16.7768 13.7213ZM19.707 14.3043C19.6549 14.3045 19.6049 14.3254 19.5682 14.3623C19.5315 14.3993 19.5109 14.4494 19.5111 14.5015C19.5113 14.5536 19.5321 14.6035 19.5691 14.6403C19.6061 14.677 19.6562 14.6975 19.7083 14.6974C20.3639 14.7087 20.9882 14.9797 21.4442 15.4507C21.65 15.6777 21.8082 15.9436 21.9095 16.2328C22.0107 16.522 22.053 16.8285 22.0338 17.1343C22.034 17.1863 22.0548 17.2361 22.0916 17.2728C22.1284 17.3095 22.1783 17.3301 22.2303 17.3301L22.2369 17.338C22.2628 17.338 22.2884 17.3329 22.3123 17.323C22.3361 17.3131 22.3578 17.2985 22.3761 17.2802C22.3943 17.2619 22.4088 17.2401 22.4186 17.2162C22.4285 17.1923 22.4335 17.1667 22.4334 17.1408C22.4531 16.3613 22.2107 15.7062 21.7325 15.1821C21.2543 14.6581 20.5861 14.3633 19.7345 14.3043C19.7253 14.3037 19.7161 14.3037 19.707 14.3043ZM20.028 15.3649C20.0017 15.3641 19.9755 15.3685 19.9509 15.3779C19.9264 15.3872 19.9039 15.4013 19.8847 15.4193C19.8656 15.4374 19.8502 15.459 19.8394 15.483C19.8287 15.507 19.8227 15.5328 19.8219 15.5591C19.8212 15.5854 19.8256 15.6116 19.8349 15.6362C19.8443 15.6607 19.8584 15.6832 19.8764 15.7024C19.8944 15.7215 19.916 15.7369 19.94 15.7477C19.964 15.7584 19.9899 15.7644 20.0162 15.7651C20.6647 15.7979 20.9791 16.1254 21.0184 16.8002C21.0201 16.8511 21.0416 16.8995 21.0783 16.9349C21.1149 16.9704 21.164 16.9902 21.215 16.9901H21.2215C21.2479 16.9893 21.2739 16.9832 21.2978 16.9721C21.3218 16.961 21.3433 16.9453 21.361 16.9257C21.3788 16.9061 21.3924 16.8832 21.401 16.8582C21.4097 16.8333 21.4133 16.8069 21.4115 16.7805C21.3656 15.9027 20.8874 15.4107 20.0358 15.3649C20.0332 15.3648 20.0306 15.3648 20.028 15.3649Z" fill="#1E2123"/>
</g>
</g>
<defs>
<clipPath id="clip0_2831_2692">
<rect width="37.3846" height="36" fill="white" transform="translate(0.0771484)"/>
</clipPath>
<clipPath id="clip1_2831_2692">
<rect width="17.8895" height="17.8895" fill="white" transform="translate(10.2393 9.05469)"/>
</clipPath>
</defs>
</svg>
