<svg width="38" height="36" viewBox="0 0 38 36" fill="none" xmlns="http://www.w3.org/2000/svg">
<g clip-path="url(#clip0_2831_2688)">
<rect x="1.40723" y="0.111328" width="35.779" height="35.779" rx="17.8895" fill="#F4F5FA"/>
<path d="M25.7563 11.8245L12.5404 16.9207C11.6385 17.283 11.6437 17.7861 12.3749 18.0105L15.768 19.069L23.6185 14.1158C23.9897 13.89 24.3289 14.0115 24.0501 14.2589L17.6896 19.9992H17.6881L17.6896 20L17.4555 23.4974C17.7984 23.4974 17.9497 23.3401 18.1421 23.1545L19.7901 21.5519L23.2182 24.084C23.8503 24.4321 24.3043 24.2532 24.4615 23.4989L26.7119 12.8934C26.9422 11.9698 26.3593 11.5516 25.7563 11.8245Z" fill="#1E2123"/>
</g>
<defs>
<clipPath id="clip0_2831_2688">
<rect width="37.3846" height="36" fill="white" transform="translate(0.307617)"/>
</clipPath>
</defs>
</svg>
