<svg width="36" height="35" viewBox="0 0 36 35" fill="none" xmlns="http://www.w3.org/2000/svg">
<g clip-path="url(#clip0_2831_898)">
<rect x="0.902405" y="0.427734" width="34.1461" height="34.1461" rx="17.073" fill="#664EF9" fill-opacity="0.1"/>
<path d="M25.2089 10.9974L10.5659 16.644C9.56662 17.0454 9.5724 17.6029 10.3826 17.8515L14.142 19.0242L22.8403 13.5362C23.2516 13.2859 23.6274 13.4206 23.3185 13.6948L16.2712 20.0549H16.2695L16.2712 20.0557L16.0119 23.9308C16.3918 23.9308 16.5594 23.7565 16.7725 23.5509L18.5985 21.7752L22.3968 24.5808C23.0971 24.9665 23.6001 24.7683 23.7744 23.9325L26.2677 12.1817C26.5229 11.1585 25.8771 10.6951 25.2089 10.9974Z" fill="#664EF9"/>
</g>
<defs>
<clipPath id="clip0_2831_898">
<rect width="34.1461" height="34.9997" fill="white" transform="translate(0.902405)"/>
</clipPath>
</defs>
</svg>
