<svg width="36" height="36" viewBox="0 0 36 36" fill="none" xmlns="http://www.w3.org/2000/svg">
<g clip-path="url(#clip0_2831_2680)">
<rect x="0.0693359" y="0.111328" width="35.779" height="35.779" rx="17.8895" fill="#F4F5FA"/>
<g clip-path="url(#clip1_2831_2680)">
<path d="M23.8583 18.7653C23.569 18.4001 23.6518 18.2376 23.8583 17.9111C23.862 17.9073 26.2495 14.6082 26.4955 13.4894L26.497 13.4886C26.6192 13.0809 26.497 12.7812 25.9059 12.7812H23.9499C23.452 12.7812 23.2224 13.0384 23.0994 13.3261C23.0994 13.3261 22.1036 15.7099 20.6948 17.2551C20.2401 17.7016 20.0299 17.8447 19.7817 17.8447C19.6594 17.8447 19.4694 17.7016 19.4694 17.2939V13.4886C19.4694 12.9997 19.33 12.7812 18.9178 12.7812H15.8423C15.5299 12.7812 15.3443 13.0093 15.3443 13.2218C15.3443 13.6854 16.0487 13.792 16.1218 15.0965V17.9267C16.1218 18.5469 16.0092 18.6609 15.7595 18.6609C15.0946 18.6609 13.4808 16.2675 12.5245 13.5281C12.3314 12.9967 12.1428 12.782 11.6412 12.782H9.68453C9.12623 12.782 9.01367 13.0392 9.01367 13.3269C9.01367 13.8352 9.67857 16.3629 12.1056 19.7023C13.7231 21.9817 16.001 23.2168 18.0732 23.2168C19.3188 23.2168 19.4708 22.9425 19.4708 22.4707C19.4708 20.2926 19.3583 20.0869 19.9822 20.0869C20.2714 20.0869 20.7693 20.23 21.9321 21.3295C23.2612 22.6332 23.4796 23.2168 24.2235 23.2168H26.1794C26.737 23.2168 27.0195 22.9425 26.857 22.4013C26.485 21.2631 23.9716 18.9218 23.8583 18.7653Z" fill="#1E2123"/>
</g>
</g>
<defs>
<clipPath id="clip0_2831_2680">
<rect width="36" height="36" fill="white"/>
</clipPath>
<clipPath id="clip1_2831_2680">
<rect width="17.8895" height="17.8895" fill="white" transform="translate(9.01367 9.05469)"/>
</clipPath>
</defs>
</svg>
