<svg width="38" height="36" viewBox="0 0 38 36" fill="none" xmlns="http://www.w3.org/2000/svg">
<g clip-path="url(#clip0_2831_2696)">
<rect x="1.52051" y="0.111328" width="35.7791" height="35.779" rx="17.8895" fill="#F4F5FA"/>
<path d="M24.7571 12.6198C24.0611 11.9187 23.2326 11.3628 22.32 10.9845C21.4073 10.6062 20.4286 10.413 19.4406 10.4161C15.2994 10.4161 11.9288 13.7867 11.9288 17.9307C11.9288 19.2549 12.2757 20.5496 12.9326 21.6871L11.8662 25.5818L15.8501 24.5364C16.9515 25.1363 18.1855 25.4511 19.4396 25.452H19.4425C23.5837 25.452 26.9571 22.0814 26.9571 17.9373C26.9596 16.9497 26.7664 15.9714 26.3887 15.0588C26.0109 14.1463 25.456 13.3176 24.7562 12.6208L24.7571 12.6198ZM19.4425 24.1838C18.3232 24.1839 17.2245 23.8831 16.2614 23.3127L16.033 23.1762L13.669 23.7951L14.3003 21.4909L14.1525 21.2539C13.5247 20.2594 13.193 19.1068 13.1961 17.9307C13.1981 16.2739 13.8573 14.6856 15.0291 13.5144C16.2009 12.3431 17.7895 11.6846 19.4463 11.6833C21.1136 11.6833 22.6842 12.3355 23.8624 13.5137C24.4438 14.093 24.9046 14.7818 25.2183 15.5403C25.532 16.2987 25.6922 17.1118 25.6898 17.9326C25.687 21.38 22.8851 24.1828 19.4425 24.1828V24.1838ZM22.8671 19.5042C22.6804 19.4094 21.7562 18.9563 21.5846 18.8937C21.4131 18.8312 21.288 18.7989 21.1609 18.9885C21.0368 19.1752 20.6756 19.5989 20.5657 19.726C20.4557 19.8501 20.3467 19.8681 20.16 19.7733C19.9733 19.6786 19.3657 19.4805 18.6491 18.8407C18.0918 18.343 17.7136 17.7269 17.6036 17.5402C17.4937 17.3535 17.5913 17.2501 17.687 17.1582C17.7733 17.0748 17.8738 16.9392 17.9685 16.8293C18.0633 16.7193 18.0927 16.6426 18.1553 16.5155C18.2178 16.3914 18.1875 16.2814 18.1401 16.1866C18.0927 16.0919 17.7164 15.1677 17.5629 14.7914C17.4122 14.4236 17.2548 14.4748 17.1392 14.4682C17.0292 14.4625 16.905 14.4625 16.7809 14.4625C16.6567 14.4625 16.452 14.5099 16.2804 14.6966C16.1088 14.8833 15.6226 15.3392 15.6226 16.2634C15.6226 17.1876 16.2946 18.0795 16.3894 18.2065C16.4842 18.3307 17.7136 20.2293 19.597 21.0416C20.0444 21.234 20.3941 21.3496 20.6662 21.4387C21.1164 21.5809 21.5249 21.5601 21.8481 21.5127C22.2093 21.4596 22.959 21.0596 23.1164 20.6207C23.2737 20.1819 23.2737 19.8065 23.2263 19.7288C23.1818 19.6454 23.0576 19.5989 22.868 19.5032L22.8671 19.5042Z" fill="#1E2123"/>
</g>
<defs>
<clipPath id="clip0_2831_2696">
<rect width="37.3846" height="36" fill="white" transform="translate(0.538086)"/>
</clipPath>
</defs>
</svg>
