<svg width="36" height="35" viewBox="0 0 36 35" fill="none" xmlns="http://www.w3.org/2000/svg">
<g clip-path="url(#clip0_2831_906)">
<rect x="0.869446" y="0.427734" width="34.1461" height="34.1461" rx="17.073" fill="#664EF9" fill-opacity="0.1"/>
<path d="M24.1558 11.8793C23.3846 11.1024 22.4667 10.4865 21.4555 10.0674C20.4442 9.64821 19.3598 9.43412 18.2651 9.43754C13.6767 9.43754 9.94218 13.1721 9.94218 17.7637C9.94218 19.2308 10.3266 20.6654 11.0544 21.9257L9.87286 26.241L14.2869 25.0826C15.5072 25.7473 16.8745 26.0961 18.2641 26.0971H18.2672C22.8556 26.0971 26.5934 22.3625 26.5934 17.771C26.5961 16.6767 26.3821 15.5927 25.9635 14.5817C25.5449 13.5706 24.9302 12.6525 24.1548 11.8803L24.1558 11.8793ZM18.2672 24.6919C17.0271 24.6921 15.8097 24.3588 14.7427 23.7268L14.4896 23.5755L11.8704 24.2613L12.5698 21.7083L12.406 21.4457C11.7105 20.3438 11.3429 19.0667 11.3463 17.7637C11.3485 15.928 12.079 14.1682 13.3773 12.8704C14.6756 11.5727 16.4358 10.8431 18.2714 10.8417C20.1188 10.8417 21.859 11.5642 23.1644 12.8696C23.8086 13.5115 24.3192 14.2747 24.6668 15.1151C25.0143 15.9554 25.1919 16.8564 25.1892 17.7658C25.1861 21.5854 22.0816 24.6909 18.2672 24.6909V24.6919ZM22.0617 19.507C21.8548 19.402 20.8308 18.9 20.6407 18.8307C20.4506 18.7614 20.312 18.7256 20.1713 18.9357C20.0337 19.1426 19.6336 19.612 19.5117 19.7528C19.3899 19.8903 19.2691 19.9103 19.0623 19.8053C18.8554 19.7002 18.1822 19.4808 17.3882 18.7719C16.7707 18.2205 16.3516 17.5379 16.2298 17.331C16.108 17.1241 16.2162 17.0096 16.3222 16.9077C16.4178 16.8153 16.5291 16.6651 16.6342 16.5433C16.7392 16.4215 16.7717 16.3364 16.841 16.1957C16.9104 16.0581 16.8768 15.9363 16.8242 15.8313C16.7717 15.7262 16.3548 14.7023 16.1847 14.2853C16.0177 13.8779 15.8433 13.9346 15.7152 13.9272C15.5934 13.9209 15.4558 13.9209 15.3182 13.9209C15.1807 13.9209 14.9538 13.9734 14.7637 14.1803C14.5736 14.3872 14.0349 14.8924 14.0349 15.9163C14.0349 16.9403 14.7795 17.9285 14.8845 18.0693C14.9895 18.2068 16.3516 20.3104 18.4384 21.2105C18.9341 21.4237 19.3217 21.5518 19.6231 21.6505C20.1219 21.808 20.5746 21.7849 20.9327 21.7324C21.3328 21.6736 22.1635 21.2304 22.3379 20.7442C22.5122 20.2579 22.5122 19.842 22.4597 19.7559C22.4103 19.6635 22.2728 19.612 22.0627 19.506L22.0617 19.507Z" fill="#664EF9"/>
</g>
<defs>
<clipPath id="clip0_2831_906">
<rect width="34.1461" height="34.9997" fill="white" transform="translate(0.869446)"/>
</clipPath>
</defs>
</svg>
