<svg width="16" height="15" viewBox="0 0 16 15" fill="none" xmlns="http://www.w3.org/2000/svg">
<path d="M10.7275 0L5.2729 0C4.33199 0 3.56836 0.763626 3.56836 1.70454V13.2955C3.56836 14.2364 4.33199 15 5.2729 15H10.7275C11.6684 15 12.432 14.2364 12.432 13.2955V1.70454C12.432 0.763626 11.6684 0 10.7275 0ZM8.00019 14.3182C7.43427 14.3182 6.97746 13.8614 6.97746 13.2955C6.97746 12.7295 7.43427 12.2727 8.00019 12.2727C8.56611 12.2727 9.02292 12.7295 9.02292 13.2955C9.02292 13.8614 8.56608 14.3182 8.00019 14.3182ZM11.0684 11.5909H4.93201V2.04546H11.0684V11.5909Z" fill="#664EF9"/>
</svg>
