<svg width="15" height="16" viewBox="0 0 15 16" fill="none" xmlns="http://www.w3.org/2000/svg">
<g clip-path="url(#clip0_2831_2727)">
<path d="M12.462 2.71394C11.3632 1.03952 9.54923 0.0976563 7.50853 0.0976562C5.48528 0.0976562 3.67132 1.03952 2.5376 2.71394C1.40388 4.35347 1.14225 6.44649 1.83993 8.27789C2.03179 8.76626 2.3283 9.27207 2.71202 9.72556L7.12481 14.9232C7.22946 15.0279 7.33412 15.0977 7.49109 15.0977C7.64807 15.0977 7.75272 15.0279 7.85737 14.9232L12.2876 9.72556C12.6713 9.27207 12.9853 8.7837 13.1597 8.27789C13.8574 6.44649 13.5957 4.35347 12.462 2.71394ZM7.50853 8.88835C6.00853 8.88835 4.77016 7.64998 4.77016 6.14998C4.77016 4.64998 6.00853 3.41161 7.50853 3.41161C9.00853 3.41161 10.2469 4.64998 10.2469 6.14998C10.2469 7.64998 9.02598 8.88835 7.50853 8.88835Z" fill="url(#paint0_linear_2831_2727)"/>
</g>
<defs>
<linearGradient id="paint0_linear_2831_2727" x1="1.45508" y1="0.847657" x2="15.7623" y2="4.16693" gradientUnits="userSpaceOnUse">
<stop stop-color="#FFD54F"/>
<stop offset="1" stop-color="#FEC100"/>
</linearGradient>
<clipPath id="clip0_2831_2727">
<rect width="15" height="15" fill="white" transform="translate(0 0.0976562)"/>
</clipPath>
</defs>
</svg>
