<svg width="15" height="16" viewBox="0 0 15 16" fill="none" xmlns="http://www.w3.org/2000/svg">
<g clip-path="url(#clip0_2831_2422)">
<path d="M12.462 3.17459C11.3632 1.4441 9.54923 0.470703 7.50853 0.470703C5.48528 0.470703 3.67132 1.4441 2.5376 3.17459C1.40388 4.86902 1.14225 7.03212 1.83993 8.92484C2.03179 9.42957 2.3283 9.95232 2.71202 10.421L7.12481 15.7927C7.22946 15.9009 7.33412 15.973 7.49109 15.973C7.64807 15.973 7.75272 15.9009 7.85737 15.7927L12.2876 10.421C12.6713 9.95232 12.9853 9.44759 13.1597 8.92484C13.8574 7.03212 13.5957 4.86902 12.462 3.17459ZM7.50853 9.55575C6.00853 9.55575 4.77016 8.27591 4.77016 6.72568C4.77016 5.17546 6.00853 3.89562 7.50853 3.89562C9.00853 3.89562 10.2469 5.17546 10.2469 6.72568C10.2469 8.27591 9.02598 9.55575 7.50853 9.55575Z" fill="#BDBDBD"/>
</g>
<defs>
<clipPath id="clip0_2831_2422">
<rect width="15" height="15.5023" fill="white" transform="translate(0 0.470703)"/>
</clipPath>
</defs>
</svg>
