<svg width="66" height="37" viewBox="0 0 66 37" fill="none" xmlns="http://www.w3.org/2000/svg">
<path d="M0 0L56 0C61.5228 0 66 4.47715 66 10V27C66 32.5228 61.5228 37 56 37H10C4.47715 37 0 32.5228 0 27L0 0Z" fill="url(#paint0_linear_2831_2411)"/>
<g filter="url(#filter0_d_2831_2411)">
<path d="M21.8182 16.6406C21.7287 16.3295 21.603 16.0547 21.4411 15.8161C21.2791 15.5732 21.081 15.3686 20.8466 15.2024C20.6165 15.032 20.3523 14.902 20.054 14.8125C19.7599 14.723 19.4339 14.6783 19.076 14.6783C18.407 14.6783 17.8189 14.8445 17.3118 15.1768C16.8089 15.5092 16.4169 15.9929 16.1357 16.6278C15.8544 17.2585 15.7138 18.0298 15.7138 18.9418C15.7138 19.8537 15.8523 20.6293 16.1293 21.2685C16.4063 21.9077 16.7983 22.3956 17.3054 22.7322C17.8125 23.0646 18.4112 23.2308 19.1016 23.2308C19.728 23.2308 20.2628 23.12 20.706 22.8984C21.1534 22.6726 21.4943 22.3551 21.7287 21.946C21.9673 21.5369 22.0866 21.0533 22.0866 20.495L22.6491 20.5781H19.2741V18.4943H24.7521V20.1435C24.7521 21.294 24.5092 22.2827 24.0234 23.1094C23.5376 23.9318 22.8686 24.5668 22.0163 25.0142C21.1641 25.4574 20.1882 25.679 19.0888 25.679C17.8615 25.679 16.7834 25.4084 15.8544 24.8672C14.9254 24.3217 14.201 23.5483 13.6811 22.5469C13.1655 21.5412 12.9077 20.348 12.9077 18.9673C12.9077 17.9062 13.0611 16.9602 13.3679 16.1293C13.679 15.294 14.1136 14.5866 14.6719 14.0071C15.2301 13.4276 15.88 12.9865 16.6214 12.6839C17.3629 12.3814 18.1662 12.2301 19.0312 12.2301C19.7727 12.2301 20.4631 12.3388 21.1023 12.5561C21.7415 12.7692 22.3082 13.0717 22.8026 13.4638C23.3011 13.8558 23.7081 14.3224 24.0234 14.8636C24.3388 15.4006 24.5412 15.9929 24.6307 16.6406H21.8182ZM31.2161 25.6918C30.2232 25.6918 29.3645 25.4808 28.6401 25.0589C27.9199 24.6328 27.3638 24.0405 26.9718 23.282C26.5797 22.5192 26.3837 21.6349 26.3837 20.6293C26.3837 19.6151 26.5797 18.7287 26.9718 17.9702C27.3638 17.2074 27.9199 16.6151 28.6401 16.1932C29.3645 15.767 30.2232 15.554 31.2161 15.554C32.209 15.554 33.0655 15.767 33.7857 16.1932C34.5101 16.6151 35.0684 17.2074 35.4604 17.9702C35.8525 18.7287 36.0485 19.6151 36.0485 20.6293C36.0485 21.6349 35.8525 22.5192 35.4604 23.282C35.0684 24.0405 34.5101 24.6328 33.7857 25.0589C33.0655 25.4808 32.209 25.6918 31.2161 25.6918ZM31.2289 23.5824C31.6806 23.5824 32.0577 23.4545 32.3603 23.1989C32.6628 22.9389 32.8908 22.5852 33.0442 22.1378C33.2019 21.6903 33.2807 21.1811 33.2807 20.6101C33.2807 20.0391 33.2019 19.5298 33.0442 19.0824C32.8908 18.6349 32.6628 18.2812 32.3603 18.0213C32.0577 17.7614 31.6806 17.6314 31.2289 17.6314C30.7729 17.6314 30.3894 17.7614 30.0783 18.0213C29.7715 18.2812 29.5392 18.6349 29.3816 19.0824C29.2282 19.5298 29.1515 20.0391 29.1515 20.6101C29.1515 21.1811 29.2282 21.6903 29.3816 22.1378C29.5392 22.5852 29.7715 22.9389 30.0783 23.1989C30.3894 23.4545 30.7729 23.5824 31.2289 23.5824ZM40.5421 12.4091V25.5H37.8191V12.4091H40.5421ZM46.3413 25.6598C45.5955 25.6598 44.9201 25.468 44.315 25.0845C43.7141 24.6967 43.2369 24.1278 42.8832 23.3778C42.5337 22.6236 42.359 21.6989 42.359 20.6037C42.359 19.4787 42.5401 18.5433 42.9023 17.7976C43.2646 17.0476 43.7461 16.4872 44.3469 16.1165C44.9521 15.7415 45.6147 15.554 46.3349 15.554C46.8846 15.554 47.3427 15.6477 47.7092 15.8352C48.0799 16.0185 48.3782 16.2486 48.604 16.5256C48.8342 16.7983 49.0089 17.0668 49.1282 17.331H49.2113V12.4091H51.9279V25.5H49.2433V23.9276H49.1282C49.0004 24.2003 48.8192 24.4709 48.5849 24.7393C48.3548 25.0036 48.0543 25.223 47.6836 25.3977C47.3171 25.5724 46.8697 25.6598 46.3413 25.6598ZM47.2042 23.4929C47.6431 23.4929 48.0138 23.3736 48.3164 23.1349C48.6232 22.892 48.8576 22.5533 49.0195 22.1186C49.1857 21.6839 49.2688 21.1747 49.2688 20.5909C49.2688 20.0071 49.1879 19.5 49.0259 19.0696C48.864 18.6392 48.6296 18.3068 48.3228 18.0724C48.016 17.8381 47.6431 17.7209 47.2042 17.7209C46.7567 17.7209 46.3796 17.8423 46.0728 18.0852C45.766 18.3281 45.5337 18.6648 45.3761 19.0952C45.2184 19.5256 45.1396 20.0241 45.1396 20.5909C45.1396 21.1619 45.2184 21.6669 45.3761 22.1058C45.538 22.5405 45.7702 22.8814 46.0728 23.1286C46.3796 23.3714 46.7567 23.4929 47.2042 23.4929Z" fill="white"/>
</g>
<defs>
<filter id="filter0_d_2831_2411" x="12.9072" y="12.2305" width="39.0205" height="14.4609" filterUnits="userSpaceOnUse" color-interpolation-filters="sRGB">
<feFlood flood-opacity="0" result="BackgroundImageFix"/>
<feColorMatrix in="SourceAlpha" type="matrix" values="0 0 0 0 0 0 0 0 0 0 0 0 0 0 0 0 0 0 127 0" result="hardAlpha"/>
<feOffset dy="1"/>
<feColorMatrix type="matrix" values="0 0 0 0 0.575 0 0 0 0 0.3105 0 0 0 0 0 0 0 0 0.3 0"/>
<feBlend mode="normal" in2="BackgroundImageFix" result="effect1_dropShadow_2831_2411"/>
<feBlend mode="normal" in="SourceGraphic" in2="effect1_dropShadow_2831_2411" result="shape"/>
</filter>
<linearGradient id="paint0_linear_2831_2411" x1="-6.06526e-07" y1="1.85" x2="65.138" y2="35.2963" gradientUnits="userSpaceOnUse">
<stop stop-color="#FFD54F"/>
<stop offset="1" stop-color="#FEC100"/>
</linearGradient>
</defs>
</svg>
