<svg width="15" height="16" viewBox="0 0 15 16" fill="none" xmlns="http://www.w3.org/2000/svg">
<g clip-path="url(#clip0_2831_2431)">
<path d="M7.501 0.814453C5.35814 0.814453 3.60645 2.56615 3.60645 4.70902C3.60645 6.85189 5.35814 8.60358 7.501 8.60358C9.64387 8.60358 11.3956 6.85189 11.3956 4.70902C11.3956 2.56615 9.64387 0.814453 7.501 0.814453Z" fill="#686868"/>
<path d="M14.1852 11.7165C14.0832 11.4613 13.9471 11.2233 13.7941 11.0022C13.0118 9.84569 11.8043 9.08039 10.4438 8.89331C10.2737 8.87632 10.0866 8.9103 9.95056 9.01235C9.23627 9.53957 8.38595 9.81167 7.50157 9.81167C6.6172 9.81167 5.76687 9.53957 5.05258 9.01235C4.91651 8.9103 4.72944 8.85929 4.55938 8.89331C3.19884 9.08039 1.97436 9.84569 1.20906 11.0022C1.056 11.2233 0.919931 11.4784 0.817913 11.7165C0.766903 11.8185 0.783896 11.9376 0.834905 12.0396C0.970972 12.2777 1.14102 12.5158 1.29408 12.7199C1.53217 13.043 1.78728 13.3321 2.07641 13.6042C2.31449 13.8423 2.5866 14.0634 2.85873 14.2845C4.20225 15.2879 5.81791 15.8151 7.48458 15.8151C9.15125 15.8151 10.7669 15.2879 12.1104 14.2845C12.3825 14.0804 12.6546 13.8423 12.8927 13.6042C13.1649 13.3321 13.437 13.043 13.6751 12.7199C13.8451 12.4988 13.9982 12.2777 14.1343 12.0396C14.2192 11.9376 14.2362 11.8185 14.1852 11.7165Z" fill="#686868"/>
</g>
<defs>
<clipPath id="clip0_2831_2431">
<rect width="15" height="15" fill="white" transform="translate(0 0.814453)"/>
</clipPath>
</defs>
</svg>
