<svg width="99" height="99" viewBox="20 10 99 99" fill="none" xmlns="http://www.w3.org/2000/svg">
<g filter="url(#filter0_d_2831_1742)">
<circle cx="69.2593" cy="58.6362" r="49.2593" fill="white"/>
</g>
<g clip-path="url(#clip0_2831_1742)">
<path d="M84.922 65.9641L93.4843 57.4915C96.6822 54.2936 102.833 58.3282 99.5098 62.2373L89.1419 74.4352C88.736 74.9125 88.2696 75.3357 87.7551 75.6936C86.0838 76.7617 84.0933 77.1176 82.132 77.1176H66.7462C65.6335 77.1176 64.5213 77.182 63.416 77.3104L58.9909 77.8075L49.8125 68.9008C49.8125 68.9008 55.0192 59.0682 65.233 61.8943C67.1432 62.4232 69.1198 62.675 71.1019 62.675H81.2136C85.9738 62.675 86.0114 70.2385 81.1739 70.2385H72.3713" fill="white"/>
<path d="M52.9617 89.3978L61.6935 80.4395C61.696 80.4371 61.696 80.4331 61.6935 80.4306L46.8772 66.0525C46.8747 66.05 46.8707 66.0505 46.8683 66.0525L38.0542 75.203L52.9617 89.3978Z" fill="#FFD54F" fill-opacity="0.4"/>
<path d="M48.5318 39.3267C45.7641 39.5889 43.5986 41.9194 43.5986 44.756V50.5629C43.5986 51.5656 44.4115 52.379 45.4147 52.379H57.8673C58.8704 52.379 59.6833 51.5656 59.6833 50.5629V44.756C59.6833 41.9174 57.5149 39.5849 54.7437 39.3262" fill="#FFD54F"/>
<path d="M57.7343 34.0666C57.7343 37.432 55.0062 40.1601 51.6408 40.1601C48.2754 40.1601 45.5474 37.432 45.5474 34.0666C45.5474 30.7012 48.2754 27.9727 51.6408 27.9727C55.0062 27.9727 57.7343 30.7012 57.7343 34.0666Z" fill="white"/>
<path d="M64.6167 39.3267C61.8491 39.5889 59.6831 41.9194 59.6831 44.756V50.5629C59.6831 51.5656 60.4965 52.379 61.4996 52.379H73.9522C74.9554 52.379 75.7683 51.5656 75.7683 50.5629V44.756C75.7683 41.9174 73.5993 39.5849 70.8287 39.3262" fill="url(#paint0_linear_2831_1742)"/>
<path d="M73.8192 34.0666C73.8192 37.432 71.0912 40.1601 67.7258 40.1601C64.3604 40.1601 61.6318 37.432 61.6318 34.0666C61.6318 30.7012 64.3604 27.9727 67.7258 27.9727C71.0912 27.9727 73.8192 30.7012 73.8192 34.0666Z" fill="white"/>
<path d="M80.7017 39.3267C77.9335 39.5889 75.7681 41.9194 75.7681 44.756V50.5629C75.7681 51.5656 76.5814 52.379 77.5841 52.379H90.0367C91.0399 52.379 91.8532 51.5656 91.8532 50.5629V44.756C91.8532 41.9174 89.6843 39.5849 86.9131 39.3262" fill="#FFD54F"/>
<path d="M89.9047 34.0666C89.9047 37.432 87.1762 40.1601 83.8107 40.1601C80.4453 40.1601 77.7173 37.432 77.7173 34.0666C77.7173 30.7012 80.4453 27.9727 83.8107 27.9727C87.1762 27.9727 89.9047 30.7012 89.9047 34.0666V34.0666Z" fill="white"/>
<path d="M100.206 56.5515C99.2339 55.6544 97.911 55.1003 96.5767 55.0309C95.0615 54.9526 93.642 55.4928 92.5848 56.5505L85.3613 63.6982C85.2185 63.4509 85.0554 63.2175 84.8725 63.0009C83.9839 61.9456 82.6843 61.3647 81.2137 61.3647H71.1016C69.1948 61.3647 67.3347 61.1174 65.5731 60.6302C60.9805 59.3599 56.593 60.2877 52.8841 63.3151C51.3759 64.5463 50.2756 65.8855 49.5797 66.8619L47.7666 65.1024C47.5282 64.8709 47.205 64.7396 46.8725 64.7396C46.8695 64.7396 46.867 64.7396 46.864 64.7396C46.5196 64.7421 46.1865 64.8853 45.9476 65.1331L37.1335 74.2832C36.8976 74.5281 36.7692 74.8572 36.7767 75.1972C36.7841 75.5377 36.9264 75.8609 37.1727 76.0953L52.0802 90.2901C52.3275 90.5255 52.6447 90.643 52.9615 90.643C53.294 90.643 53.6266 90.5136 53.8769 90.2569L62.6087 81.2986C62.8471 81.0537 62.9794 80.7192 62.973 80.3772C62.9665 80.0402 62.8253 79.715 62.5834 79.4801L61.8231 78.7426L63.5633 78.5468C64.616 78.4243 65.6866 78.3624 66.7463 78.3624H82.1316C84.6317 78.3624 86.755 77.8157 88.4432 76.7372C88.457 76.7283 88.4709 76.7188 88.4848 76.7094C89.0895 76.2891 89.6382 75.791 90.115 75.2294L100.483 63.0321C102.257 60.9449 102.146 58.3403 100.206 56.5515V56.5515ZM52.9282 87.5685L39.866 75.1308L46.9027 67.8255L59.8886 80.4272L52.9282 87.5685ZM98.5355 61.3766L88.1676 73.5745C87.8385 73.9616 87.4613 74.3055 87.0455 74.597C85.7781 75.3994 84.1251 75.8068 82.1316 75.8068H66.7458C65.5885 75.8068 64.4183 75.8748 63.2728 76.0081L59.4475 76.4373L51.4378 68.6646C51.9945 67.8394 53.018 66.5056 54.5004 65.2952C57.5824 62.7793 61.0786 62.0383 64.8916 63.0936C66.8752 63.6422 68.9643 63.9208 71.1016 63.9208H81.2137C83.0297 63.9208 83.5145 65.494 83.5145 66.4233C83.5145 67.1023 83.2964 67.7487 82.9162 68.1967C82.5039 68.682 81.9175 68.9278 81.1736 68.9278H72.3709C71.6651 68.9278 71.0931 69.5003 71.0931 70.2061C71.0931 70.9119 71.6651 71.4838 72.3709 71.4838H81.1736C82.6595 71.4838 83.97 70.9039 84.8641 69.8512C85.6081 68.9759 86.0324 67.825 86.068 66.5948L94.3874 58.3626C95.5765 57.1736 97.4342 57.472 98.4735 58.4305C99.0108 58.9262 99.7335 59.9675 98.5355 61.3766V61.3766Z" fill="url(#paint1_linear_2831_1742)"/>
<path d="M68.3856 69.8654C68.2245 69.1779 67.5371 68.7522 66.8496 68.9128C66.1626 69.0739 65.7359 69.7613 65.8975 70.4488L65.9094 70.5008C66.0476 71.0896 66.5725 71.4872 67.1524 71.4872C67.2491 71.4872 67.3472 71.4762 67.4454 71.4534C68.1328 71.2924 68.5591 70.6044 68.398 69.9174L68.3856 69.8654Z" fill="url(#paint2_linear_2831_1742)"/>
<path d="M45.4146 53.6252H57.8672C58.5452 53.6252 59.1727 53.4051 59.6832 53.0334C60.1938 53.4051 60.8212 53.6252 61.4993 53.6252H73.9524C74.6304 53.6252 75.2579 53.4051 75.7684 53.0334C76.2789 53.4051 76.9064 53.6252 77.5844 53.6252H90.037C91.743 53.6252 93.1308 52.2369 93.1308 50.5309V44.7239C93.1308 42.1158 91.6712 39.8502 89.4864 38.7325C90.5451 37.4558 91.1825 35.8182 91.1825 34.0338C91.1825 29.9691 87.8755 26.6621 83.8107 26.6621C79.746 26.6621 76.439 29.9691 76.439 34.0338C76.439 35.8182 77.0764 37.4563 78.1351 38.7325C77.1909 39.2163 76.3825 39.9147 75.7684 40.7617C75.1543 39.9142 74.3459 39.2158 73.4012 38.7325C74.4599 37.4563 75.0973 35.8182 75.0973 34.0338C75.0973 29.9691 71.7904 26.6621 67.7256 26.6621C63.6608 26.6621 60.3539 29.9691 60.3539 34.0338C60.3539 35.8182 60.9917 37.4563 62.0504 38.733C61.1057 39.2163 60.2973 39.9147 59.6832 40.7622C59.0691 39.9147 58.2607 39.2163 57.316 38.7325C58.3747 37.4563 59.0121 35.8182 59.0121 34.0343C59.0121 29.9691 55.7052 26.6621 51.6404 26.6621C47.5761 26.6621 44.2692 29.9691 44.2692 34.0343C44.2692 35.8182 44.9066 37.4563 45.9653 38.733C43.7805 39.8507 42.3203 42.1168 42.3203 44.7244V50.5309C42.3203 52.2369 43.7086 53.6252 45.4146 53.6252V53.6252ZM83.8112 29.2181C86.4664 29.2181 88.6269 31.3782 88.6269 34.0338C88.6269 36.689 86.4664 38.8495 83.8112 38.8495C81.1556 38.8495 78.9956 36.6895 78.9956 34.0338C78.9951 31.3782 81.1556 29.2181 83.8112 29.2181ZM80.4909 40.6125C81.4896 41.1186 82.6172 41.4056 83.8107 41.4056C85.0047 41.4056 86.1323 41.1186 87.1306 40.6125C89.1166 40.9585 90.5753 42.67 90.5753 44.7239V50.5309C90.5753 50.8278 90.3339 51.0691 90.037 51.0691H77.5844C77.2881 51.0691 77.0467 50.8278 77.0467 50.5309V44.7239C77.0462 42.6704 78.5054 40.9585 80.4909 40.6125ZM67.7261 29.2181C70.3812 29.2181 72.5418 31.3782 72.5418 34.0338C72.5418 36.689 70.3812 38.8495 67.7261 38.8495C65.0704 38.8495 62.9104 36.6895 62.9104 34.0338C62.9104 31.3782 65.0704 29.2181 67.7261 29.2181ZM64.4062 40.6125C65.4045 41.1186 66.5321 41.4056 67.7261 41.4056C68.9201 41.4056 70.0472 41.1186 71.0459 40.6125C73.0315 40.9585 74.4906 42.67 74.4906 44.7239V50.5309C74.4906 50.8278 74.2493 51.0691 73.9524 51.0691H61.4998C61.2029 51.0691 60.9615 50.8278 60.9615 50.5309V44.7239C60.9615 42.6704 62.4207 40.9585 64.4062 40.6125ZM51.6409 29.2181C54.2961 29.2181 56.4566 31.3782 56.4566 34.0338C56.4566 36.689 54.2961 38.8495 51.6409 38.8495C48.9857 38.8495 46.8252 36.689 46.8252 34.0338C46.8252 31.3782 48.9857 29.2181 51.6409 29.2181ZM44.8764 44.7239C44.8764 42.6704 46.3355 40.9585 48.3211 40.6125C49.3198 41.1186 50.4469 41.4056 51.6409 41.4056C52.8349 41.4056 53.962 41.1186 54.9607 40.6125C56.9468 40.9585 58.4055 42.67 58.4055 44.7239V50.5309C58.4055 50.8278 58.1641 51.0691 57.8672 51.0691H45.4146C45.1177 51.0691 44.8764 50.8278 44.8764 50.5309V44.7239Z" fill="url(#paint3_linear_2831_1742)"/>
</g>
<defs>
<filter id="filter0_d_2831_1742" x="0" y="0.376953" width="138.519" height="138.518" filterUnits="userSpaceOnUse" color-interpolation-filters="sRGB">
<feFlood flood-opacity="0" result="BackgroundImageFix"/>
<feColorMatrix in="SourceAlpha" type="matrix" values="0 0 0 0 0 0 0 0 0 0 0 0 0 0 0 0 0 0 127 0" result="hardAlpha"/>
<feOffset dy="11"/>
<feGaussianBlur stdDeviation="10"/>
<feColorMatrix type="matrix" values="0 0 0 0 0.498056 0 0 0 0 0.606283 0 0 0 0 0.733333 0 0 0 0.16 0"/>
<feBlend mode="normal" in2="BackgroundImageFix" result="effect1_dropShadow_2831_1742"/>
<feBlend mode="normal" in="SourceGraphic" in2="effect1_dropShadow_2831_1742" result="shape"/>
</filter>
<linearGradient id="paint0_linear_2831_1742" x1="59.6831" y1="39.9788" x2="77.5015" y2="46.2995" gradientUnits="userSpaceOnUse">
<stop stop-color="#FFD54F"/>
<stop offset="1" stop-color="#FEC100"/>
</linearGradient>
<linearGradient id="paint1_linear_2831_1742" x1="36.7764" y1="72.8332" x2="98.1652" y2="72.8332" gradientUnits="userSpaceOnUse">
<stop stop-color="#9D94FF"/>
<stop offset="1" stop-color="#6B50E9"/>
</linearGradient>
<linearGradient id="paint2_linear_2831_1742" x1="65.8633" y1="70.183" x2="68.2906" y2="70.183" gradientUnits="userSpaceOnUse">
<stop stop-color="#9D94FF"/>
<stop offset="1" stop-color="#6B50E9"/>
</linearGradient>
<linearGradient id="paint3_linear_2831_1742" x1="42.3203" y1="40.1436" x2="90.3339" y2="40.1436" gradientUnits="userSpaceOnUse">
<stop stop-color="#9D94FF"/>
<stop offset="1" stop-color="#6B50E9"/>
</linearGradient>
<clipPath id="clip0_2831_1742">
<rect width="64.9651" height="64.9651" fill="white" transform="translate(36.7764 26.1543)"/>
</clipPath>
</defs>
</svg>
