<svg width="405" height="345" viewBox="50 20 405 345" fill="none" xmlns="http://www.w3.org/2000/svg">
<g filter="url(#filter0_d_0_1)">
<rect x="40" y="20.3926" width="405" height="345" rx="10" fill="url(#paint0_linear_0_1)"/>
</g>
<mask id="mask0_0_1" style="mask-type:alpha" maskUnits="userSpaceOnUse" x="40" y="20" width="405" height="346">
<rect x="40" y="20.3926" width="405" height="345" rx="10" fill="url(#paint1_linear_0_1)"/>
</mask>
<g mask="url(#mask0_0_1)">
<path d="M300.837 540.723C294.67 546.889 285.141 546.889 278.974 540.723L178.632 440.941C172.465 434.774 172.465 425.245 178.632 419.078L391.089 206.06C397.255 199.894 406.785 199.894 412.951 206.06L513.294 306.403C519.46 312.569 519.46 322.099 513.294 328.265L300.837 540.723Z" fill="#FFC200"/>
<path d="M293.997 352.015C302.309 343.689 308.691 336.585 308.253 336.147C307.815 335.71 300.722 342.105 292.41 350.431C284.098 358.756 277.716 365.86 278.154 366.298C278.592 366.735 285.685 360.341 293.997 352.015Z" fill="#FFDA00"/>
<path d="M292.243 351.978C300.577 360.283 307.688 366.661 308.125 366.222C308.562 365.783 302.16 358.695 293.825 350.39C285.491 342.084 278.38 335.707 277.943 336.146C277.506 336.584 283.908 343.673 292.243 351.978Z" fill="#FFDA00"/>
<path d="M395.68 178.803C395.68 200.665 394.559 218.603 393.438 218.603C392.316 218.603 391.195 200.665 391.195 178.803C391.195 156.94 392.316 139.002 393.438 139.002C394.559 139.002 395.68 156.94 395.68 178.803Z" fill="#FFDA00"/>
<path d="M393.435 181.045C415.417 181.045 433.236 180.041 433.236 178.803C433.236 177.564 415.417 176.561 393.435 176.561C371.454 176.561 353.635 177.564 353.635 178.803C353.635 180.041 371.454 181.045 393.435 181.045Z" fill="#FFDA00"/>
</g>
<defs>
<filter id="filter0_d_0_1" x="0" y="0.392578" width="485" height="425" filterUnits="userSpaceOnUse" color-interpolation-filters="sRGB">
<feFlood flood-opacity="0" result="BackgroundImageFix"/>
<feColorMatrix in="SourceAlpha" type="matrix" values="0 0 0 0 0 0 0 0 0 0 0 0 0 0 0 0 0 0 127 0" result="hardAlpha"/>
<feOffset dy="20"/>
<feGaussianBlur stdDeviation="20"/>
<feColorMatrix type="matrix" values="0 0 0 0 0.616667 0 0 0 0 0.408747 0 0 0 0 0.00513887 0 0 0 0.15 0"/>
<feBlend mode="normal" in2="BackgroundImageFix" result="effect1_dropShadow_0_1"/>
<feBlend mode="normal" in="SourceGraphic" in2="effect1_dropShadow_0_1" result="shape"/>
</filter>
<linearGradient id="paint0_linear_0_1" x1="177.265" y1="131.507" x2="460.779" y2="224.081" gradientUnits="userSpaceOnUse">
<stop stop-color="#FFD54F"/>
<stop offset="1" stop-color="#FEC100"/>
</linearGradient>
<linearGradient id="paint1_linear_0_1" x1="177.265" y1="131.507" x2="460.779" y2="224.081" gradientUnits="userSpaceOnUse">
<stop stop-color="#FFD54F"/>
<stop offset="1" stop-color="#FEC100"/>
</linearGradient>
</defs>
</svg>
