<svg width="13" height="16" viewBox="0 0 13 16" fill="none" xmlns="http://www.w3.org/2000/svg">
<path d="M11.0069 3.11628C9.90811 1.44186 8.09415 0.5 6.05346 0.5C4.0302 0.5 2.21625 1.44186 1.08253 3.11628C-0.0511958 4.75581 -0.312824 6.84884 0.384851 8.68023C0.576711 9.1686 0.873223 9.67442 1.25694 10.1279L5.66973 15.3256C5.77439 15.4302 5.87904 15.5 6.03601 15.5C6.19299 15.5 6.29764 15.4302 6.40229 15.3256L10.8325 10.1279C11.2162 9.67442 11.5302 9.18605 11.7046 8.68023C12.4023 6.84884 12.1407 4.75581 11.0069 3.11628ZM6.05346 9.2907C4.55346 9.2907 3.31508 8.05233 3.31508 6.55233C3.31508 5.05233 4.55346 3.81395 6.05346 3.81395C7.55346 3.81395 8.79183 5.05233 8.79183 6.55233C8.79183 8.05233 7.5709 9.2907 6.05346 9.2907Z" fill="#664EF9"/>
</svg>
