<svg width="99" height="99" viewBox="20 10 99 99" fill="none" xmlns="http://www.w3.org/2000/svg">
<g filter="url(#filter0_d_2831_1762)">
<circle cx="69.2593" cy="58.6362" r="49.2593" fill="white"/>
</g>
<g clip-path="url(#clip0_2831_1762)">
<rect x="68.9424" y="33.6328" width="25.4375" height="11.5" fill="#B8C4FF"/>
<path d="M91.3838 31.5078H72.2939C69.677 31.5078 67.5479 33.637 67.5479 36.2539V42.582C67.5479 45.199 69.677 47.3281 72.2939 47.3281H80.2041V50.5977H72.2939C69.677 50.5977 67.5479 52.7264 67.5479 55.3433V61.6715C67.5479 64.2888 69.677 66.4176 72.2939 66.4176H80.2041V69.6871H72.2939C69.677 69.6871 67.5479 71.8162 67.5479 74.4332V80.7613C67.5479 83.3783 69.677 85.5074 72.2939 85.5074H91.3838C94.0007 85.5074 96.1299 83.3783 96.1299 80.7613V74.4332C96.1299 71.8162 94.0007 69.6871 91.3838 69.6871H83.3682V66.4176H91.3838C94.0007 66.4176 96.1299 64.2888 96.1299 61.6715V55.3433C96.1299 52.7264 94.0007 50.5977 91.3838 50.5977H83.3682V47.3281H91.3838C94.0007 47.3281 96.1299 45.199 96.1299 42.582V36.2539C96.1299 33.637 94.0007 31.5078 91.3838 31.5078ZM92.9658 74.4332V80.7613C92.9658 81.6339 92.256 82.3433 91.3838 82.3433H72.2939C71.4214 82.3433 70.7119 81.6339 70.7119 80.7613V74.4332C70.7119 73.561 71.4214 72.8512 72.2939 72.8512H91.3838C92.256 72.8512 92.9658 73.561 92.9658 74.4332ZM92.9658 55.3433V61.6715C92.9658 62.5441 92.256 63.2535 91.3838 63.2535H72.2939C71.4214 63.2535 70.7119 62.5441 70.7119 61.6715V55.3433C70.7119 54.4712 71.4214 53.7617 72.2939 53.7617H91.3838C92.256 53.7617 92.9658 54.4712 92.9658 55.3433ZM92.9658 42.582C92.9658 43.4542 92.256 44.1641 91.3838 44.1641H72.2939C71.4214 44.1641 70.7119 43.4542 70.7119 42.582V36.2539C70.7119 35.3813 71.4214 34.6719 72.2939 34.6719H91.3838C92.256 34.6719 92.9658 35.3813 92.9658 36.2539V42.582Z" fill="url(#paint0_linear_2831_1762)"/>
<path d="M50.1455 79.1797C51.0193 79.1797 51.7275 78.4715 51.7275 77.5977C51.7275 76.7242 51.0193 76.0156 50.1455 76.0156C47.5158 76.0156 45.2939 73.8424 45.2939 71.2695C45.2939 70.3961 44.5857 69.6875 43.7119 69.6875C42.8381 69.6875 42.1299 70.3961 42.1299 71.2695C42.1299 75.642 45.7723 79.1797 50.1455 79.1797Z" fill="#FEC100"/>
<path d="M43.7119 66.418C44.5857 66.418 45.2939 65.7098 45.2939 64.8359V58.5078C45.2939 57.6344 44.5857 56.9258 43.7119 56.9258C42.8381 56.9258 42.1299 57.6344 42.1299 58.5078V64.8359C42.1299 65.7098 42.8381 66.418 43.7119 66.418Z" fill="#FEC100"/>
<path d="M43.7119 53.7621C44.5857 53.7621 45.2939 53.0535 45.2939 52.1801V45.7465C45.2939 43.1737 47.5158 41.0004 50.1455 41.0004H57.5765L52.432 44.4298C51.7049 44.9147 51.5084 45.8969 51.9933 46.6236C52.4802 47.3545 53.4637 47.5448 54.1871 47.0624L63.6793 40.7347C64.1193 40.4409 64.3838 39.947 64.3838 39.418C64.3838 38.889 64.1193 38.395 63.6793 38.1017L54.1871 31.7736C53.4599 31.2891 52.4778 31.4856 51.9933 32.2123C51.5084 32.9395 51.7049 33.9217 52.432 34.4061L57.5765 37.8359H50.1455C45.7731 37.8359 42.1299 41.3729 42.1299 45.7461V52.1797C42.1299 53.0535 42.8381 53.7621 43.7119 53.7621Z" fill="#FEC100"/>
<path d="M56.4736 76.0156C55.5998 76.0156 54.8916 76.7242 54.8916 77.5977C54.8916 78.4715 55.5998 79.1797 56.4736 79.1797H62.8018C63.6756 79.1797 64.3838 78.4715 64.3838 77.5977C64.3838 76.7242 63.6756 76.0156 62.8018 76.0156H56.4736Z" fill="#FEC100"/>
<path d="M88.2197 37.8359H75.458C74.5842 37.8359 73.876 38.5441 73.876 39.418C73.876 40.2914 74.5842 41 75.458 41H88.2197C89.0931 41 89.8018 40.2914 89.8018 39.418C89.8018 38.5441 89.0931 37.8359 88.2197 37.8359Z" fill="url(#paint1_linear_2831_1762)"/>
<path d="M73.876 58.5078C73.876 59.3816 74.5842 60.0898 75.458 60.0898H88.2197C89.0931 60.0898 89.8018 59.3816 89.8018 58.5078C89.8018 57.6344 89.0931 56.9258 88.2197 56.9258H75.458C74.5842 56.9258 73.876 57.6344 73.876 58.5078Z" fill="url(#paint2_linear_2831_1762)"/>
<path d="M73.876 77.5977C73.876 78.4715 74.5842 79.1797 75.458 79.1797H88.2197C89.0931 79.1797 89.8018 78.4715 89.8018 77.5977C89.8018 76.7242 89.0931 76.0156 88.2197 76.0156H75.458C74.5842 76.0156 73.876 76.7238 73.876 77.5977Z" fill="url(#paint3_linear_2831_1762)"/>
</g>
<defs>
<filter id="filter0_d_2831_1762" x="0" y="0.376953" width="138.519" height="138.518" filterUnits="userSpaceOnUse" color-interpolation-filters="sRGB">
<feFlood flood-opacity="0" result="BackgroundImageFix"/>
<feColorMatrix in="SourceAlpha" type="matrix" values="0 0 0 0 0 0 0 0 0 0 0 0 0 0 0 0 0 0 127 0" result="hardAlpha"/>
<feOffset dy="11"/>
<feGaussianBlur stdDeviation="10"/>
<feColorMatrix type="matrix" values="0 0 0 0 0.498056 0 0 0 0 0.606283 0 0 0 0 0.733333 0 0 0 0.16 0"/>
<feBlend mode="normal" in2="BackgroundImageFix" result="effect1_dropShadow_2831_1762"/>
<feBlend mode="normal" in="SourceGraphic" in2="effect1_dropShadow_2831_1762" result="shape"/>
</filter>
<linearGradient id="paint0_linear_2831_1762" x1="67.5479" y1="58.5076" x2="94.5566" y2="58.5076" gradientUnits="userSpaceOnUse">
<stop stop-color="#9D94FF"/>
<stop offset="1" stop-color="#6B50E9"/>
</linearGradient>
<linearGradient id="paint1_linear_2831_1762" x1="73.876" y1="39.418" x2="88.9251" y2="39.418" gradientUnits="userSpaceOnUse">
<stop stop-color="#9D94FF"/>
<stop offset="1" stop-color="#6B50E9"/>
</linearGradient>
<linearGradient id="paint2_linear_2831_1762" x1="73.876" y1="58.5078" x2="88.9251" y2="58.5078" gradientUnits="userSpaceOnUse">
<stop stop-color="#9D94FF"/>
<stop offset="1" stop-color="#6B50E9"/>
</linearGradient>
<linearGradient id="paint3_linear_2831_1762" x1="73.876" y1="77.5977" x2="88.9251" y2="77.5977" gradientUnits="userSpaceOnUse">
<stop stop-color="#9D94FF"/>
<stop offset="1" stop-color="#6B50E9"/>
</linearGradient>
<clipPath id="clip0_2831_1762">
<rect width="54" height="54" fill="white" transform="translate(42.1299 31.5078)"/>
</clipPath>
</defs>
</svg>
