<svg width="13" height="15" viewBox="0 0 13 15" fill="none" xmlns="http://www.w3.org/2000/svg">
<path d="M11.0074 2.61628C9.9086 0.941861 8.09464 0 6.05394 0C4.03069 0 2.21673 0.941861 1.08301 2.61628C-0.0507075 4.25581 -0.312336 6.34884 0.385339 8.18023C0.577199 8.6686 0.873711 9.17442 1.25743 9.62791L5.67022 14.8256C5.77487 14.9302 5.87953 15 6.0365 15C6.19348 15 6.29813 14.9302 6.40278 14.8256L10.833 9.62791C11.2167 9.17442 11.5307 8.68605 11.7051 8.18023C12.4028 6.34884 12.1412 4.25581 11.0074 2.61628ZM6.05394 8.7907C4.55394 8.7907 3.31557 7.55233 3.31557 6.05233C3.31557 4.55233 4.55394 3.31395 6.05394 3.31395C7.55394 3.31395 8.79232 4.55233 8.79232 6.05233C8.79232 7.55233 7.57139 8.7907 6.05394 8.7907Z" fill="#FFD54F"/>
</svg>
