<svg width="45" height="45" viewBox="0 0 45 45" fill="none" xmlns="http://www.w3.org/2000/svg">
<rect width="45" height="45" rx="22.5" fill="white" fill-opacity="0.1"/>
<path d="M23 13C17.4774 13 13 17.4774 13 23C13 27.9905 16.6564 32.1269 21.4378 32.88V25.8913H18.8976V23H21.4378V20.7968C21.4378 18.2885 22.931 16.9054 25.2142 16.9054C26.3083 16.9054 27.4544 17.1004 27.4544 17.1004V19.5597H26.1903C24.9502 19.5597 24.5622 20.3317 24.5622 21.1228V22.998H27.3334L26.8904 25.8893H24.5622V32.878C29.3436 32.1289 33 27.9915 33 23C33 17.4774 28.5226 13 23 13Z" fill="white"/>
</svg>
