<svg width="30" height="30" viewBox="0 0 30 30" fill="none" xmlns="http://www.w3.org/2000/svg">
<rect width="30" height="30" rx="15" fill="white" fill-opacity="0.1"/>
<path d="M20.0069 10.6163C18.9081 8.94186 17.0942 8 15.0535 8C13.0302 8 11.2162 8.94186 10.0825 10.6163C8.9488 12.2558 8.68718 14.3488 9.38485 16.1802C9.57671 16.6686 9.87322 17.1744 10.2569 17.6279L14.6697 22.8256C14.7744 22.9302 14.879 23 15.036 23C15.193 23 15.2976 22.9302 15.4023 22.8256L19.8325 17.6279C20.2162 17.1744 20.5302 16.686 20.7046 16.1802C21.4023 14.3488 21.1407 12.2558 20.0069 10.6163ZM15.0535 16.7907C13.5535 16.7907 12.3151 15.5523 12.3151 14.0523C12.3151 12.5523 13.5535 11.314 15.0535 11.314C16.5535 11.314 17.7918 12.5523 17.7918 14.0523C17.7918 15.5523 16.5709 16.7907 15.0535 16.7907Z" fill="white"/>
</svg>
