<svg width="30" height="30" viewBox="0 0 30 30" fill="none" xmlns="http://www.w3.org/2000/svg">
<rect width="30" height="30" rx="15" fill="white" fill-opacity="0.1"/>
<g clip-path="url(#clip0_2831_1343)">
<path d="M15.5 8C11.3644 8 8 11.3644 8 15.5C8 19.6356 11.3644 23 15.5 23C19.6356 23 23 19.6356 23 15.5C23 11.3644 19.6356 8 15.5 8ZM15.5 21.3607C12.2683 21.3607 9.63934 18.7317 9.63934 15.5C9.63934 12.2685 12.2683 9.63934 15.5 9.63934C18.7317 9.63934 21.3607 12.2685 21.3607 15.5C21.3607 18.7317 18.7317 21.3607 15.5 21.3607Z" fill="white"/>
<path d="M16.1491 15.5093V12.3659C16.1491 12.0149 15.8647 11.7305 15.5138 11.7305C15.1629 11.7305 14.8784 12.0149 14.8784 12.3659V15.7123C14.8784 15.7223 14.8809 15.7317 14.8814 15.7417C14.873 15.9144 14.9325 16.0899 15.0645 16.2218L17.4309 18.5881C17.6791 18.8363 18.0814 18.8363 18.3294 18.5881C18.5774 18.3399 18.5776 17.9376 18.3294 17.6895L16.1491 15.5093Z" fill="white"/>
</g>
<defs>
<clipPath id="clip0_2831_1343">
<rect width="15" height="15" fill="white" transform="translate(8 8)"/>
</clipPath>
</defs>
</svg>
