<svg width="45" height="45" viewBox="0 0 45 45" fill="none" xmlns="http://www.w3.org/2000/svg">
<rect width="45" height="45" rx="22.5" fill="white" fill-opacity="0.1"/>
<path d="M22.9973 17.8689C20.1579 17.8689 17.8664 20.1604 17.8664 22.9998C17.8664 25.8392 20.1579 28.1307 22.9973 28.1307C25.8367 28.1307 28.1282 25.8392 28.1282 22.9998C28.1282 20.1604 25.8367 17.8689 22.9973 17.8689ZM22.9973 26.3345C21.1611 26.3345 19.6626 24.836 19.6626 22.9998C19.6626 21.1636 21.1611 19.6651 22.9973 19.6651C24.8335 19.6651 26.332 21.1636 26.332 22.9998C26.332 24.836 24.8335 26.3345 22.9973 26.3345ZM28.3383 16.463C27.6754 16.463 27.14 16.9984 27.14 17.6613C27.14 18.3242 27.6754 18.8596 28.3383 18.8596C29.0013 18.8596 29.5366 18.3267 29.5366 17.6613C29.5368 17.5039 29.5059 17.348 29.4458 17.2025C29.3856 17.057 29.2974 16.9249 29.1861 16.8135C29.0748 16.7022 28.9426 16.614 28.7971 16.5538C28.6516 16.4937 28.4957 16.4628 28.3383 16.463ZM32.9989 22.9998C32.9989 21.6189 33.0114 20.2505 32.9338 18.8721C32.8563 17.2711 32.4911 15.8501 31.3203 14.6793C30.147 13.5061 28.7286 13.1433 27.1275 13.0658C25.7466 12.9882 24.3782 13.0007 22.9998 13.0007C21.6189 13.0007 20.2505 12.9882 18.8721 13.0658C17.271 13.1433 15.8501 13.5086 14.6793 14.6793C13.5061 15.8526 13.1433 17.2711 13.0658 18.8721C12.9882 20.253 13.0007 21.6214 13.0007 22.9998C13.0007 24.3782 12.9882 25.7491 13.0658 27.1275C13.1433 28.7286 13.5086 30.1495 14.6793 31.3203C15.8526 32.4936 17.271 32.8563 18.8721 32.9338C20.253 33.0114 21.6214 32.9989 22.9998 32.9989C24.3807 32.9989 25.7491 33.0114 27.1275 32.9338C28.7286 32.8563 30.1495 32.4911 31.3203 31.3203C32.4936 30.147 32.8563 28.7286 32.9338 27.1275C33.0139 25.7491 32.9989 24.3807 32.9989 22.9998ZM30.7974 28.8987C30.6148 29.354 30.3947 29.6942 30.0419 30.0444C29.6892 30.3972 29.3515 30.6173 28.8962 30.7999C27.5803 31.3228 24.4558 31.2052 22.9973 31.2052C21.5389 31.2052 18.4118 31.3228 17.0959 30.8024C16.6406 30.6198 16.3004 30.3997 15.9502 30.0469C15.5975 29.6942 15.3773 29.3565 15.1947 28.9012C14.6743 27.5828 14.7919 24.4583 14.7919 22.9998C14.7919 21.5414 14.6743 18.4143 15.1947 17.0984C15.3773 16.6431 15.5975 16.3029 15.9502 15.9527C16.3029 15.6025 16.6406 15.3798 17.0959 15.1972C18.4118 14.6768 21.5389 14.7944 22.9973 14.7944C24.4558 14.7944 27.5828 14.6768 28.8987 15.1972C29.354 15.3798 29.6942 15.6 30.0444 15.9527C30.3972 16.3054 30.6173 16.6431 30.7999 17.0984C31.3203 18.4143 31.2027 21.5414 31.2027 22.9998C31.2027 24.4583 31.3203 27.5828 30.7974 28.8987Z" fill="white"/>
</svg>
