<svg width="30" height="30" viewBox="0 0 30 30" fill="none" xmlns="http://www.w3.org/2000/svg">
<rect width="30" height="30" rx="15" fill="white" fill-opacity="0.1"/>
<g clip-path="url(#clip0_2831_1335)">
<path d="M21.6603 21.3928C21.9975 21.3928 22.2896 21.2814 22.538 21.0616L18.2883 16.8117C18.1863 16.8847 18.0875 16.9557 17.9941 17.0232C17.6761 17.2575 17.418 17.4404 17.2198 17.5714C17.0216 17.7027 16.7579 17.8366 16.4288 17.9732C16.0994 18.11 15.7926 18.1782 15.5079 18.1782H15.4996H15.4913C15.2066 18.1782 14.8997 18.1101 14.5704 17.9732C14.2411 17.8366 13.9774 17.7027 13.7794 17.5714C13.5812 17.4404 13.3233 17.2576 13.0051 17.0232C12.9164 16.9582 12.8181 16.8869 12.7117 16.8105L8.46118 21.0616C8.70952 21.2814 9.00187 21.3928 9.33902 21.3928H21.6603Z" fill="white"/>
<path d="M8.84551 14.1365C8.52751 13.9245 8.24551 13.6817 8 13.4082V19.8741L11.7457 16.1284C10.9964 15.6052 10.0308 14.942 8.84551 14.1365Z" fill="white"/>
<path d="M22.1632 14.1365C21.0231 14.9082 20.0541 15.5725 19.2561 16.1299L23.0003 19.8742V13.4082C22.7602 13.6762 22.4812 13.9189 22.1632 14.1365Z" fill="white"/>
<path d="M21.6607 9.60742H9.33944C8.90959 9.60742 8.57912 9.75258 8.34761 10.0426C8.1159 10.3327 8.00024 10.6956 8.00024 11.1307C8.00024 11.4822 8.15373 11.8631 8.46057 12.2734C8.76741 12.6836 9.09391 13.0058 9.43991 13.2401C9.62959 13.3741 10.2016 13.7718 11.1559 14.433C11.6711 14.79 12.1191 15.1011 12.5041 15.3696C12.8323 15.5983 13.1153 15.7963 13.349 15.9606C13.3758 15.9795 13.418 16.0096 13.474 16.0497C13.5343 16.093 13.6106 16.148 13.7048 16.216C13.8861 16.3471 14.0368 16.4532 14.1568 16.5341C14.2766 16.6152 14.4218 16.7057 14.5921 16.8062C14.7623 16.9065 14.9228 16.982 15.0735 17.0322C15.2241 17.0823 15.3636 17.1075 15.492 17.1075H15.5003H15.5086C15.6369 17.1075 15.7764 17.0823 15.9271 17.0322C16.0778 16.982 16.2381 16.9067 16.4085 16.8062C16.5786 16.7057 16.7236 16.615 16.8438 16.5341C16.9638 16.4532 17.1145 16.3472 17.2958 16.216C17.3898 16.148 17.4662 16.093 17.5265 16.0498C17.5825 16.0096 17.6247 15.9796 17.6516 15.9606C17.8337 15.834 18.1173 15.6368 18.4987 15.372C19.1927 14.8898 20.2147 14.1801 21.569 13.2401C21.9764 12.9556 22.3167 12.6123 22.5902 12.2106C22.8632 11.8089 23.0001 11.3876 23.0001 10.9468C23.0001 10.5784 22.8674 10.2633 22.6025 10.0008C22.3374 9.73858 22.0234 9.60742 21.6607 9.60742Z" fill="white"/>
</g>
<defs>
<clipPath id="clip0_2831_1335">
<rect width="15" height="15" fill="white" transform="translate(8 8)"/>
</clipPath>
</defs>
</svg>
