<svg width="31" height="30" viewBox="0 0 31 30" fill="none" xmlns="http://www.w3.org/2000/svg">
<rect x="0.0742188" width="30" height="30" rx="15" fill="white" fill-opacity="0.1"/>
<path d="M20.0557 9.98872C19.4072 9.3355 18.6354 8.81763 17.7851 8.46518C16.9348 8.11272 16.023 7.9327 15.1025 7.93558C11.2444 7.93558 8.10418 11.0758 8.10418 14.9366C8.10418 16.1702 8.42738 17.3765 9.03935 18.4362L8.0459 22.0647L11.7574 21.0907C12.7835 21.6496 13.9332 21.9429 15.1016 21.9437H15.1043C18.9624 21.9437 22.1053 18.8035 22.1053 14.9427C22.1076 14.0226 21.9276 13.1111 21.5757 12.261C21.2237 11.4108 20.7068 10.6388 20.0548 9.9896L20.0557 9.98872ZM15.1043 20.7622C14.0615 20.7624 13.0379 20.482 12.1407 19.9506L11.9279 19.8235L9.7255 20.4001L10.3136 18.2534L10.1759 18.0326C9.59106 17.1061 9.28201 16.0322 9.28485 14.9366C9.28672 13.393 9.90089 11.9133 10.9926 10.8221C12.0843 9.73091 13.5643 9.11741 15.1078 9.11625C16.6611 9.11625 18.1244 9.7238 19.222 10.8215C19.7637 11.3612 20.1931 12.0029 20.4853 12.7095C20.7775 13.4161 20.9268 14.1737 20.9246 14.9383C20.9219 18.1501 18.3116 20.7613 15.1043 20.7613V20.7622ZM18.2948 16.4025C18.1208 16.3141 17.2599 15.892 17.1 15.8338C16.9402 15.7755 16.8236 15.7455 16.7053 15.9221C16.5896 16.096 16.2532 16.4908 16.1507 16.6091C16.0483 16.7248 15.9467 16.7416 15.7728 16.6532C15.5988 16.5649 15.0328 16.3804 14.3651 15.7843C13.8459 15.3207 13.4936 14.7467 13.3911 14.5727C13.2887 14.3988 13.3796 14.3025 13.4688 14.2169C13.5492 14.1391 13.6428 14.0129 13.7311 13.9104C13.8194 13.808 13.8468 13.7365 13.9051 13.6181C13.9634 13.5025 13.9351 13.4 13.8909 13.3117C13.8468 13.2234 13.4962 12.3624 13.3532 12.0118C13.2127 11.6692 13.0662 11.7169 12.9584 11.7107C12.856 11.7054 12.7403 11.7054 12.6246 11.7054C12.5089 11.7054 12.3182 11.7496 12.1584 11.9235C11.9985 12.0975 11.5455 12.5222 11.5455 13.3832C11.5455 14.2442 12.1716 15.0752 12.2599 15.1935C12.3482 15.3092 13.4936 17.078 15.2482 17.8348C15.665 18.0141 15.9909 18.1218 16.2443 18.2048C16.6638 18.3373 17.0444 18.3178 17.3455 18.2737C17.682 18.2242 18.3805 17.8516 18.5271 17.4427C18.6736 17.0338 18.6736 16.6842 18.6295 16.6117C18.588 16.534 18.4723 16.4908 18.2957 16.4016L18.2948 16.4025Z" fill="white"/>
</svg>
