<svg width="30" height="30" viewBox="0 0 30 30" fill="none" xmlns="http://www.w3.org/2000/svg">
<rect width="30" height="30" rx="15" fill="white" fill-opacity="0.1"/>
<path d="M17.2272 7H11.7727C10.8317 7 10.0681 7.76363 10.0681 8.70454V20.2955C10.0681 21.2364 10.8317 22 11.7727 22H17.2272C18.1681 22 18.9317 21.2364 18.9317 20.2955V8.70454C18.9317 7.76363 18.1681 7 17.2272 7ZM14.4999 21.3182C13.934 21.3182 13.4772 20.8614 13.4772 20.2955C13.4772 19.7295 13.934 19.2727 14.4999 19.2727C15.0659 19.2727 15.5227 19.7295 15.5227 20.2955C15.5227 20.8614 15.0658 21.3182 14.4999 21.3182ZM17.5681 18.5909H11.4318V9.04546H17.5681V18.5909Z" fill="white"/>
</svg>
