<svg width="45" height="45" viewBox="0 0 45 45" fill="none" xmlns="http://www.w3.org/2000/svg">
<rect width="45" height="45" rx="22.5" fill="white" fill-opacity="0.1"/>
<path d="M32.5414 17.7901C32.6812 17.3343 32.5414 17 31.8807 17H29.6919C29.135 17 28.8805 17.2892 28.7407 17.6068C28.7407 17.6068 27.6279 20.272 26.0509 22.0001C25.5419 22.503 25.3093 22.6618 25.0319 22.6618C24.8931 22.6618 24.6915 22.503 24.6915 22.0472V17.7901C24.6915 17.2431 24.5308 17 24.0667 17H20.6273C20.28 17 20.0704 17.2529 20.0704 17.494C20.0704 18.0116 20.8589 18.1312 20.9397 19.5898V22.7539C20.9397 23.447 20.813 23.5734 20.5335 23.5734C19.7919 23.5734 17.9874 20.8984 16.9165 17.8361C16.7079 17.2411 16.4973 17.001 15.9384 17.001H13.7506C13.1248 17.001 13 17.2901 13 17.6077C13 18.1782 13.7416 21.0013 16.4544 24.735C18.2629 27.2845 20.809 28.6667 23.1285 28.6667C24.5189 28.6667 24.6905 28.3599 24.6905 27.8305V25.9034C24.6905 25.2898 24.8233 25.1663 25.2634 25.1663C25.5868 25.1663 26.1437 25.327 27.4422 26.5553C28.9254 28.0119 29.1709 28.6657 30.0043 28.6657H32.1921C32.8169 28.6657 33.1293 28.3589 32.9497 27.7531C32.753 27.1503 32.0444 26.273 31.1042 25.2349C30.5932 24.6428 29.8296 24.0057 29.5971 23.6871C29.2727 23.2764 29.3665 23.0951 29.5971 22.7304C29.5981 22.7314 32.264 19.0438 32.5414 17.7901Z" fill="white"/>
</svg>
