<svg width="30" height="30" viewBox="0 0 30 30" fill="none" xmlns="http://www.w3.org/2000/svg">
<rect width="30" height="30" rx="15" fill="white" fill-opacity="0.1"/>
<path d="M14.9099 7.96994C13.735 7.98581 11.2072 8.17867 9.79311 9.47434C8.74339 10.518 8.3766 12.0565 8.33387 13.9619C8.29726 15.8599 8.25454 19.4241 11.6905 20.3951V21.872C11.6905 21.872 11.6673 22.464 12.0579 22.5861C12.5401 22.7386 12.8147 22.2815 13.2724 21.7933L14.1269 20.829C16.4765 21.0243 18.2769 20.5733 18.4844 20.5062C18.9604 20.3536 21.6464 20.0112 22.0858 16.4464C22.5374 12.7657 21.8661 10.4465 20.6577 9.39683L20.6516 9.39561C20.2854 9.05994 18.8207 7.99191 15.5434 7.97971C15.5434 7.97971 15.3017 7.96445 14.9099 7.96994ZM14.9508 9.00562C15.2834 9.00379 15.4878 9.01783 15.4878 9.01783C18.2586 9.02393 19.5836 9.86005 19.8948 10.1408C20.914 11.0129 21.4377 13.1044 21.0544 16.1779C20.6882 19.1562 18.5094 19.3454 18.1066 19.4735C17.9358 19.5284 16.349 19.919 14.3521 19.7909C14.3521 19.7909 12.8635 21.5858 12.3997 22.0496C12.3265 22.1289 12.241 22.1534 12.1861 22.1411C12.1068 22.1228 12.0823 22.0252 12.0885 21.8909L12.1007 19.4381C9.18891 18.6325 9.35979 15.592 9.39031 14.0052C9.42693 12.4184 9.72597 11.1173 10.6109 10.2384C11.8053 9.1582 13.9523 9.01173 14.9502 9.00562H14.9508ZM15.1705 10.5924C15.1465 10.5923 15.1227 10.597 15.1005 10.6061C15.0782 10.6153 15.0581 10.6287 15.041 10.6456C15.024 10.6626 15.0105 10.6827 15.0013 10.7049C14.9921 10.7271 14.9874 10.7509 14.9874 10.7749C14.9874 10.8234 15.0067 10.87 15.041 10.9044C15.0753 10.9387 15.1219 10.958 15.1705 10.958C15.6242 10.9493 16.0751 11.0306 16.4973 11.1972C16.9194 11.3637 17.3044 11.6122 17.63 11.9284C18.2952 12.5753 18.6193 13.4419 18.6315 14.5771C18.6315 14.6011 18.6362 14.6249 18.6454 14.6471C18.6546 14.6693 18.6681 14.6895 18.6851 14.7065C18.7021 14.7235 18.7223 14.737 18.7445 14.7462C18.7667 14.7554 18.7905 14.7602 18.8146 14.7602V14.7547C18.8631 14.7547 18.9097 14.7354 18.944 14.701C18.9784 14.6667 18.9977 14.6201 18.9977 14.5716C19.0203 14.0377 18.9341 13.5049 18.7441 13.0054C18.5542 12.506 18.2646 12.0505 17.893 11.6665C17.1668 10.9586 16.2501 10.5924 15.1699 10.5924H15.1705ZM12.7573 11.0135C12.6276 10.995 12.4953 11.0208 12.382 11.0868H12.3747C12.1245 11.2332 11.8938 11.4163 11.6741 11.6604C11.5093 11.8557 11.4171 12.0504 11.3927 12.2396C11.3783 12.3506 11.3888 12.4633 11.4232 12.5698L11.4354 12.5759C11.6235 13.1289 11.869 13.6607 12.1678 14.1627C12.5551 14.8656 13.0309 15.516 13.5837 16.0979L13.602 16.1224L13.6264 16.1407L13.6447 16.159L13.663 16.1773C14.2472 16.7314 14.8993 17.2092 15.6038 17.5993C16.4094 18.0387 16.8988 18.2462 17.1918 18.3316V18.3377C17.2772 18.3622 17.3554 18.3744 17.4347 18.3744C17.6847 18.3561 17.9215 18.2547 18.1072 18.0863C18.3453 17.8727 18.5345 17.6359 18.6748 17.3857V17.3796C18.8152 17.1171 18.7664 16.8663 18.565 16.6954C18.1591 16.3404 17.7196 16.0256 17.2528 15.7556C16.9416 15.5847 16.6242 15.6884 16.496 15.8593L16.2214 16.2066C16.081 16.3775 15.8247 16.353 15.8247 16.353L15.8174 16.3591C13.9133 15.8709 13.4067 13.943 13.4067 13.943C13.4067 13.943 13.3823 13.6805 13.5593 13.5463L13.901 13.2716C14.0658 13.1374 14.1818 12.82 14.0048 12.5088C13.7351 12.0417 13.4203 11.6022 13.0649 11.1966C12.9876 11.1007 12.8785 11.0358 12.7573 11.0135ZM15.4872 11.5567C15.4387 11.5568 15.3922 11.5763 15.3579 11.6107C15.3237 11.6452 15.3046 11.6918 15.3047 11.7404C15.3049 11.7889 15.3243 11.8355 15.3588 11.8697C15.3932 11.9039 15.4399 11.923 15.4884 11.9229C16.0992 11.9335 16.6808 12.1859 17.1057 12.6247C17.2974 12.8362 17.4448 13.0839 17.5392 13.3533C17.6335 13.6227 17.6729 13.9083 17.655 14.1932C17.6552 14.2416 17.6745 14.2881 17.7089 14.3223C17.7432 14.3565 17.7896 14.3757 17.8381 14.3757L17.8442 14.383C17.8683 14.383 17.8922 14.3782 17.9144 14.369C17.9367 14.3598 17.9569 14.3462 17.9739 14.3292C17.9909 14.3121 18.0044 14.2918 18.0135 14.2695C18.0227 14.2473 18.0274 14.2234 18.0273 14.1993C18.0456 13.473 17.8198 12.8627 17.3743 12.3745C16.9288 11.8862 16.3062 11.6116 15.5129 11.5567C15.5043 11.5561 15.4958 11.5561 15.4872 11.5567ZM15.7863 12.5448C15.7618 12.544 15.7374 12.5482 15.7145 12.5569C15.6916 12.5656 15.6706 12.5787 15.6528 12.5955C15.635 12.6123 15.6207 12.6324 15.6106 12.6548C15.6006 12.6771 15.595 12.7012 15.5943 12.7257C15.5936 12.7502 15.5977 12.7746 15.6064 12.7975C15.6151 12.8204 15.6283 12.8413 15.6451 12.8592C15.6619 12.877 15.682 12.8913 15.7044 12.9014C15.7267 12.9114 15.7508 12.9169 15.7753 12.9177C16.3795 12.9482 16.6724 13.2533 16.709 13.8819C16.7106 13.9294 16.7306 13.9744 16.7648 14.0075C16.7989 14.0405 16.8446 14.0589 16.8921 14.0589H16.8982C16.9228 14.0582 16.947 14.0524 16.9693 14.0421C16.9917 14.0318 17.0117 14.0171 17.0282 13.9989C17.0447 13.9806 17.0574 13.9593 17.0655 13.936C17.0736 13.9128 17.0769 13.8882 17.0752 13.8636C17.0325 13.0458 16.587 12.5875 15.7936 12.5448C15.7912 12.5447 15.7887 12.5447 15.7863 12.5448Z" fill="white"/>
</svg>
