<svg width="54" height="38" viewBox="0 0 54 38" fill="none" xmlns="http://www.w3.org/2000/svg">
<rect x="0.0334473" y="0.5" width="53.0662" height="37.07" rx="18.535" fill="#664EF9"/>
<path d="M34.8676 25.2581L31.5441 21.9344C31.3941 21.7844 31.1907 21.7011 30.9774 21.7011H30.434C31.3541 20.5243 31.9008 19.0442 31.9008 17.434C31.9008 13.6036 28.7973 10.5 24.9671 10.5C21.1369 10.5 18.0334 13.6036 18.0334 17.434C18.0334 21.2644 21.1369 24.368 24.9671 24.368C26.5772 24.368 28.0573 23.8213 29.234 22.9012V23.4446C29.234 23.658 29.3173 23.8613 29.4673 24.0113L32.7908 27.335C33.1042 27.6483 33.6108 27.6483 33.9209 27.335L34.8642 26.3916C35.1776 26.0782 35.1776 25.5715 34.8676 25.2581ZM24.9671 21.7011C22.6103 21.7011 20.7002 19.7942 20.7002 17.434C20.7002 15.0771 22.607 13.1669 24.9671 13.1669C27.3239 13.1669 29.234 15.0738 29.234 17.434C29.234 19.7909 27.3272 21.7011 24.9671 21.7011Z" fill="white"/>
</svg>
